<svg width="450" height="467" viewBox="0 0 450 467" fill="none" xmlns="http://www.w3.org/2000/svg">
<path d="M186.8 148.422C183.161 147.933 150.864 147.933 145.069 148.422C144.97 148.444 144.882 148.505 144.824 148.591C144.766 148.677 144.741 148.783 144.755 148.888C144.775 148.966 144.815 149.037 144.87 149.094C144.925 149.151 144.994 149.193 145.069 149.214C150.28 149.68 183.094 149.89 186.688 149.4C187.204 149.354 187.361 148.492 186.8 148.422ZM338.517 206.719C338.068 206.719 332.296 208.839 333.823 209.701L335.44 211.099C335.081 211.938 338.607 215.759 336.181 224.753C335.171 224.031 335.148 224.753 335.283 224.986C339.034 228.994 365.828 251.245 371.803 255.276C372.342 256.092 375.756 254.344 376.295 254.158C388.161 248.909 399.745 242.998 410.995 236.45C415.106 234.12 415.061 225.755 410.075 222.47C404.83 218.851 399.368 215.583 393.724 212.683L400.686 207.022C401.18 206.625 400.911 205.158 399.024 206.742C394.962 199.932 393.317 191.864 394.375 183.931C394.645 183.768 397.654 181.904 396.329 181.298C389.591 178.386 367.266 169.881 360.393 169.439C358.147 169.275 340.179 184.187 338.495 187.193C334.901 193.414 336.002 200.521 338.629 206.789L338.517 206.719ZM336.72 225.102C338.966 222.563 338.27 215.596 337.192 212.52C340.269 215.083 364.997 234.422 372.858 239.595C377.103 248.915 372.364 253.435 372.521 254.134C359.36 244.651 348.647 233.817 336.72 225.102ZM409.917 224.054C413.668 226.058 412.815 234.399 410.12 235.378C397.901 242.158 385.818 248.263 373.195 254.018C374.853 251.697 375.758 248.891 375.778 246.003L393.072 238.64C393.387 238.477 393.072 238.034 392.825 238.104C387.019 240.118 381.334 242.491 375.801 245.21C375.757 242.946 375.078 240.743 373.847 238.873C379.125 236.706 406.099 222.19 409.917 224.054ZM372.477 200.381C379.085 194.705 385.999 189.423 393.185 184.56C392.66 187.393 392.562 190.294 392.893 193.158C391.792 193.531 378.181 203.876 377.485 204.435C377.193 204.668 377.485 205.158 377.844 204.971L393.05 194.253C393.522 197.538 395.431 205.018 398.373 207.045C395.386 209.561 380.607 221.701 377.013 221.701C374.319 219.004 372.455 215.541 371.655 211.747C370.856 207.952 371.157 203.998 372.521 200.381H372.477ZM369.534 180.273C371.107 181.671 364.593 185.609 364.346 185.679C363.605 185.912 363.111 185.119 364.705 183.535C365.514 182.813 368.479 179.411 369.534 180.296V180.273ZM357.294 184.164C358.417 181.834 363.088 177.966 365.065 176.568C365.162 176.498 365.272 176.448 365.388 176.422C365.504 176.395 365.623 176.393 365.74 176.415C365.857 176.436 365.969 176.482 366.068 176.548C366.168 176.614 366.255 176.7 366.323 176.801C366.39 176.902 366.438 177.016 366.464 177.136C366.489 177.257 366.492 177.381 366.471 177.502C366.45 177.623 366.406 177.739 366.342 177.843C366.278 177.946 366.195 178.036 366.098 178.106C364.346 179.504 359.585 184.141 358.259 185.096C358.16 185.153 358.048 185.183 357.934 185.183C357.82 185.183 357.708 185.153 357.608 185.096C357.529 185.059 357.459 185.005 357.4 184.939C357.341 184.873 357.296 184.795 357.267 184.71C357.237 184.626 357.225 184.536 357.229 184.446C357.234 184.356 357.256 184.268 357.294 184.187V184.164ZM340.808 188.195C350.443 190.907 359.909 194.23 369.152 198.144C369.736 198.447 369.534 199.472 368.838 199.333C359.209 196.549 349.751 193.165 340.516 189.197C340.413 189.137 340.333 189.043 340.289 188.93C340.245 188.817 340.24 188.691 340.274 188.574C340.308 188.457 340.38 188.356 340.477 188.287C340.574 188.218 340.691 188.186 340.808 188.195ZM339.146 207.837C349.859 214.105 369.804 222.073 377.328 223.238C378.833 223.471 391.051 214.571 393.05 213.056C394.353 214.384 405.201 220.745 407.963 222.516C403.965 222.726 374.947 236.752 372.858 238.127C360.393 228.458 347.456 218.648 334.676 209.445L339.168 207.837H339.146ZM223.275 104.012C223.138 103.954 222.985 103.954 222.848 104.012C221.523 104.851 213.864 115.662 212.314 117.689C210.832 115.592 209.327 113.518 207.822 111.491C207.53 111.118 206.924 111.491 207.149 111.981C208.653 114.474 210.271 116.874 211.91 119.273C212.18 119.646 212.696 119.46 212.921 119.157C214.336 117.293 223.342 106.016 223.724 104.734C223.741 104.656 223.742 104.575 223.728 104.497C223.715 104.418 223.686 104.343 223.644 104.276C223.603 104.209 223.548 104.151 223.485 104.106C223.422 104.06 223.35 104.028 223.275 104.012ZM180.444 152.942C166.968 153.222 152.032 152.942 146.237 153.455C146.118 153.455 146.004 153.504 145.92 153.591C145.835 153.679 145.788 153.797 145.788 153.921C145.788 154.044 145.835 154.163 145.92 154.25C146.004 154.338 146.118 154.387 146.237 154.387C153.2 154.387 174.874 155.132 180.444 153.897C180.915 153.781 180.826 153.082 180.444 152.942ZM180.938 129.525C181.387 129.525 181.522 128.733 180.938 128.663C176.446 127.964 149.494 129.339 142.958 130.388C142.839 130.388 142.725 130.437 142.64 130.524C142.556 130.611 142.509 130.73 142.509 130.854C142.509 130.977 142.556 131.096 142.64 131.183C142.725 131.27 142.839 131.32 142.958 131.32C151.762 131.32 171.774 129.898 180.826 129.572L180.938 129.525ZM171.999 134.185C172.381 134.185 172.583 133.393 171.999 133.253C169.753 132.671 147.293 133.253 143.901 133.65C143.848 133.658 143.797 133.677 143.751 133.707C143.705 133.736 143.665 133.775 143.633 133.82C143.602 133.866 143.58 133.918 143.568 133.972C143.556 134.027 143.555 134.084 143.564 134.139C143.577 134.23 143.615 134.314 143.676 134.381C143.736 134.448 143.815 134.493 143.901 134.512C148.236 134.768 169.348 134.931 171.999 134.185ZM219.883 147.001C221.119 145.137 207.575 145.812 206.991 146.441C206.407 147.07 206.991 156.647 206.991 157.532C206.991 158.907 219.547 158.884 220.041 158.487C220.601 154.696 220.601 150.838 220.041 147.047L219.883 147.001ZM218.918 157.439C217.727 157.439 208.901 157.602 208.182 157.02C208.182 153.734 207.98 150.472 207.867 147.21H219.097C218.693 150.604 218.633 154.032 218.918 157.439Z" fill="black"/>
<path d="M378.226 211.752C381.371 209.818 384.583 207.93 387.615 205.833C388.042 205.531 387.615 204.738 387.121 205.018L377.89 211.216C377.838 211.269 377.805 211.338 377.797 211.413C377.789 211.488 377.806 211.564 377.846 211.627C377.886 211.69 377.946 211.737 378.015 211.76C378.084 211.783 378.159 211.78 378.226 211.752ZM355.587 237.335C355.317 237.149 354.958 237.592 355.227 237.825C357.473 239.852 368.524 247.867 370.949 249.638C371.264 249.871 371.533 249.335 371.241 249.102C366.525 245.374 360.595 240.457 355.587 237.335ZM210.091 138.892C211.259 138.892 220.4 139.987 220.31 138.426C220.22 136.865 220.085 127.894 219.501 127.615C219.344 126.054 207.957 127.195 206.901 127.405C206.25 127.405 206.519 136.492 206.564 137.587C206.632 139.172 209.08 138.846 210.091 138.892ZM218.917 128.151V137.96C215.134 137.556 211.326 137.478 207.53 137.727C207.679 134.534 207.619 131.335 207.351 128.151C209.215 128.151 217.727 128.454 218.917 128.151ZM370.455 245.164C370.512 245.213 370.584 245.24 370.657 245.24C370.731 245.24 370.803 245.213 370.86 245.164C370.904 245.113 370.928 245.046 370.928 244.978C370.928 244.909 370.904 244.843 370.86 244.791C360.573 237.219 350.354 228.108 340.247 221.002C339.955 220.769 339.505 221.212 339.797 221.514C345.457 227.106 363.133 240.155 370.545 245.281L370.455 245.164ZM220.265 112.283C220.234 112.179 220.165 112.092 220.073 112.04C219.98 111.988 219.872 111.975 219.771 112.004C219.703 112.02 219.641 112.055 219.59 112.104C219.538 112.153 219.5 112.215 219.479 112.283V120.438H207.036C206.818 116.683 206.413 112.943 205.823 109.231C209.336 109.4 212.857 109.307 216.357 108.951C216.436 108.925 216.504 108.871 216.549 108.799C216.594 108.727 216.613 108.641 216.604 108.555C216.591 108.506 216.569 108.459 216.538 108.419C216.507 108.379 216.468 108.346 216.424 108.322C215.593 108.043 205.194 107.111 205.509 108.975C204.476 108.975 205.98 120.625 205.98 120.625C206.519 122.046 208.788 121.557 209.978 121.557C211.169 121.557 219.434 121.767 220.108 121.557C221.186 121.114 220.579 113.658 220.332 112.237L220.265 112.283Z" fill="black"/>
<path d="M437.273 323.663C408.659 325.481 380.038 327.034 351.409 328.323C351.035 324.074 350.283 319.87 349.163 315.764C377.612 314.988 406.062 314.079 434.511 313.038C434.656 313.02 434.791 312.953 434.897 312.848C435.002 312.743 435.072 312.605 435.095 312.456C435.114 312.274 435.063 312.091 434.954 311.948C434.845 311.804 434.686 311.71 434.511 311.687C405.942 312.79 377.38 313.698 348.826 314.413C342.088 290.041 327.871 266.857 311.296 248.497C310.779 242.299 310.757 239.176 308.196 232.955C303.255 221.189 297.797 218.742 297.932 221.538C297.93 222.275 298.044 223.006 298.269 223.705C297.37 222.54 290.767 215.41 289.42 219.255C288.426 218.606 287.304 218.198 286.138 218.061C284.971 217.924 283.79 218.061 282.682 218.463C278.482 211.473 271.452 211.473 266.96 209.142C258.38 204.482 262.333 189.617 268.644 184.071C268.644 184.071 295.753 183.536 295.776 183.186C296.27 176.592 301.683 76.2379 301.683 76.2379C234.887 74.8632 163.015 76.2379 96.7132 77.636C96.264 77.636 95.8822 77.9389 95.9271 78.3583C99.925 113.658 109.74 185.912 109.74 185.912C111.357 186.588 258.178 184.211 266.96 184.071C263.204 188.321 261.148 193.894 261.21 199.659C261.659 214.338 272.912 208.094 282.12 218.835C276.146 221.492 275.382 229.344 277.628 234.959C278.036 236.036 278.588 237.048 279.268 237.965C279.362 240.154 279.963 242.288 281.02 244.186C283.894 249.848 289.015 251.805 289.285 252.644C289.285 265.832 291.958 281.909 294.496 294.771C285.938 290.111 260.559 278.997 234.46 278.204C235.942 264.853 247.06 263.176 245.533 254.252C250.182 254.065 254.831 253.879 259.48 253.646C260.648 253.646 259.368 249.918 259.233 249.289C257.347 240.668 255.453 232.062 253.551 223.472C253.259 222.307 251.956 214.478 250.856 214.478L236.369 214.758C233.18 211.612 225.701 210.447 222.646 214.105C218.154 205.135 204.274 206.44 203.825 215.154C200.029 212.474 194.392 211.938 190.955 215.573C190.596 215.736 122.654 216.692 112.547 217.111H112.368C112.259 217.183 112.181 217.297 112.152 217.427C112.122 217.558 112.143 217.695 112.211 217.81C112.39 219.022 106.528 247.774 105.832 254.694C105.832 255.673 116.006 255.533 117.062 255.533C102.553 273.171 89.5036 293.07 85.618 316.347C61.1366 315.951 36.6553 315.322 12.1739 315.415C12.0548 315.415 11.9406 315.464 11.8563 315.551C11.7721 315.639 11.7247 315.757 11.7247 315.881C11.7247 316.004 11.7721 316.123 11.8563 316.21C11.9406 316.298 12.0548 316.347 12.1739 316.347C36.543 317.442 60.9794 317.558 85.3709 317.745C84.6443 322.365 84.3435 327.046 84.4725 331.725C60.2158 331.212 35.959 330.42 11.7247 330.001C11.1857 330.001 11.0959 330.886 11.7247 330.886C35.9815 332.168 60.2832 332.634 84.5848 333.007C85.2137 345.659 90.0201 361.176 101.969 366.862C106.888 376.881 117.309 385.898 128.921 383.312C128.584 385.129 128.269 386.993 127.933 388.857C127.798 389.696 129.011 390.045 129.145 389.207C132.447 370.753 135.883 352.206 141.656 334.405C141.835 333.845 141.027 333.636 140.825 334.172C135.21 349.643 132.043 365.906 129.123 382.1C117.242 383.894 107.763 376.042 102.845 365.417C100.198 359.803 98.6677 353.694 98.3436 347.453C98.0195 341.213 98.9086 334.969 100.958 329.092C107.09 312.782 123.418 301.132 139.454 293.163C155.76 285.147 173.271 280.095 191.225 278.228C192.505 290.67 206.295 294.887 216.807 294.235C227.318 293.583 233.539 290.251 234.438 279.253C234.572 279.253 272.372 280.115 305.007 302.739C314.597 309.38 323.312 317.908 328.41 328.743C333.396 339.204 335.148 352.043 330.656 362.947C324.232 378.838 312.508 381.145 304.737 382.566C301.99 365.505 296.685 348.995 289.015 333.636C288.813 333.24 288.184 333.496 288.386 333.915C296.385 351.807 301.839 370.809 304.58 390.325C304.58 390.931 305.748 391.094 305.748 390.325C305.657 388.192 305.386 386.072 304.939 383.987C313.41 383.232 321.252 379.046 326.77 372.337C344.738 367.677 352.577 347.523 351.476 329.768C380.165 328.556 408.824 327.003 437.453 325.108C438.239 324.805 437.947 323.663 437.273 323.663ZM109.83 171.186C105.338 141.548 101.767 112.05 97.7014 82.3892C165.081 81.1776 234.213 81.6902 300.672 80.5252L295.484 167.924C267.431 168.81 113.446 169.718 109.83 171.186ZM245.263 252.947C244.852 251.704 244.064 250.634 243.017 249.895C244.182 247.974 244.811 245.756 244.837 243.487H246.049L247.734 252.807L245.263 252.947ZM243.377 235.868C243.761 235.547 244.115 235.188 244.432 234.796C244.971 237.289 245.421 239.782 245.87 242.275H244.792C244.902 240.045 244.412 237.826 243.377 235.868ZM258.739 252.341L248.408 252.807C248.138 249.662 247.554 246.563 247.015 243.487C250.244 243.598 253.476 243.513 256.695 243.231C257.369 246.236 258.065 249.312 258.739 252.341ZM256.493 242.159H246.836L245.218 233.421L254.539 233.142L256.493 242.159ZM254.247 232.14L245.465 232.419C245.634 231.314 245.558 230.184 245.243 229.114C244.928 228.044 244.382 227.063 243.646 226.245C243.511 225.546 243.377 224.824 243.197 224.101L252.451 223.892L254.247 232.14ZM250.811 215.503C251.305 217.833 251.754 220.327 252.203 222.75L242.972 222.913C242.501 220.463 241.893 218.044 241.153 215.667L250.811 215.503ZM242.321 225.383C241.228 224.867 239.992 224.776 238.84 225.126C238.943 224.838 239.025 224.542 239.087 224.241H242.052L242.321 225.383ZM240.075 215.69C240.496 218.136 241.051 220.555 241.737 222.936H239.244C239.501 220.355 238.812 217.767 237.312 215.69H240.075ZM185.7 216.692H190.034C189.119 218.16 188.796 219.942 189.136 221.655L185.318 222.796C185.497 220.793 185.7 218.556 185.7 216.692ZM184.487 216.692V223.193C184.106 223.427 183.739 223.684 183.386 223.961L172.763 224.148C172.861 221.73 172.793 219.309 172.56 216.901L184.487 216.692ZM179.77 233.584H172.695V225.429L181.904 225.266C180.93 226.373 180.227 227.706 179.856 229.154C179.484 230.602 179.455 232.122 179.77 233.584ZM172.74 244.372H178.872C178.958 246.405 179.684 248.353 180.938 249.918C180.197 250.45 179.601 251.171 179.207 252.012C178.814 252.853 178.636 253.785 178.692 254.718H172.628C172.695 251.223 172.74 247.798 172.74 244.372ZM179.478 241.553C179.281 242.04 179.138 242.548 179.051 243.068H172.852V234.656H180.107C180.595 236.047 181.47 237.255 182.623 238.128C181.219 238.882 180.086 240.082 179.388 241.553H179.478ZM171.954 254.694H144.126C144.418 250.687 144.126 248.17 146.619 244.722L171.707 244.419C171.685 247.844 171.752 251.269 171.864 254.694H171.954ZM147.54 243.44C149.877 240.989 151.644 238.017 152.706 234.749H158.321V243.301L147.54 243.44ZM159.758 217.158L171.527 216.948C171.401 219.362 171.401 221.781 171.527 224.194L159.691 224.404C159.691 222.004 159.713 219.581 159.758 217.158ZM159.601 225.686L171.482 225.476V233.631H159.444C159.444 230.975 159.444 228.342 159.601 225.686ZM159.444 234.726H171.595V243.137L158.95 243.301C159.129 240.435 159.264 237.662 159.444 234.726ZM148.214 217.367L158.972 217.181L158.725 224.427L147.765 224.614C148.031 222.209 148.114 219.786 148.012 217.367H148.214ZM147.675 225.872L158.703 225.686L158.501 233.608H152.998C153.267 232.326 153.761 230.229 152.302 229.53C150.842 228.831 149.449 232.326 146.754 233.584C147.001 231.021 147.226 228.458 147.473 225.895L147.675 225.872ZM138.062 217.554L147.338 217.391C147.017 219.794 146.815 222.213 146.731 224.637H145.968C146.934 222.191 141.723 220.606 137.231 224.637C137.298 223.449 137.927 218.346 137.86 217.554H138.062ZM146.44 226.012C146.282 228.552 146.148 231.068 145.99 233.608H142.487C141.813 231.557 142.487 226.734 144.283 226.012H146.395H146.44ZM136.714 217.624L136.355 224.847H132.155C130.493 221.259 131.549 218.532 129.909 217.67L136.714 217.624ZM135.816 226.152C135.298 226.825 134.861 227.56 134.513 228.342L132.851 226.222L135.816 226.152ZM121.464 217.927L128.674 217.787C126.428 218.905 126.091 222.866 126.091 225.033H122.699C121.554 224.008 121.06 225.033 120.206 225.033L121.419 217.787L121.464 217.927ZM126.45 229.763C125.204 228.901 124.191 227.721 123.508 226.338H126.046C126.073 227.486 126.178 228.631 126.36 229.763H126.45ZM119.016 233.258L120.094 226.408C119.869 228.773 120.153 231.161 120.925 233.398L119.016 233.258ZM121.262 234.4C122.183 237.592 123.508 240.505 124.137 243.72L117.399 243.86L118.746 234.377L121.262 234.4ZM113.109 217.95H120.476C120.049 220.28 119.645 222.796 119.241 225.243C116.792 225.243 114.322 225.383 111.874 225.499C112.403 223.009 112.785 220.488 113.019 217.95H113.109ZM111.716 226.455H119.016C118.679 228.785 118.32 231.115 117.96 233.282H110.436C110.818 230.951 111.222 228.691 111.627 226.455H111.716ZM110.346 234.097C112.817 234.237 115.288 234.307 117.758 234.353C117.331 237.499 116.837 240.691 116.433 243.86C113.805 243.86 111.177 244.046 108.55 244.163C109.156 240.807 109.74 237.452 110.346 234.097ZM115.4 254.298H106.73C107.292 251.176 107.876 248.077 108.482 244.978L116.276 245.188C115.802 248.205 115.48 251.246 115.31 254.298H115.4ZM116.029 254.298L117.354 244.978H124.339C124.406 245.598 124.406 246.223 124.339 246.842L118.028 254.322L116.029 254.298ZM100.734 325.9C98.1065 332.109 96.7933 338.831 96.8824 345.612C96.9715 352.392 98.4609 359.074 101.25 365.207C79.5089 349.969 84.1356 316.277 93.3891 294.748C100.958 277.109 112.952 262.127 125.237 247.751C127.034 245.631 121.217 231.441 121.015 227.969C120.88 225.383 121.913 224.847 122.834 226.688C123.755 228.528 125.08 230.625 126.899 231.068C127.618 233.258 128.18 232.559 128.09 232.21C127.326 228.365 126.001 222.89 128.472 219.348C130.268 216.878 130.201 221.422 130.381 222.307C130.807 224.427 132.627 228.528 134.266 229.297C133.705 230.951 134.648 230.369 134.715 230.159C137.905 221.468 147.652 222.703 144.508 224.847C143.679 225.36 142.974 226.064 142.449 226.904C141.923 227.745 141.59 228.699 141.476 229.693C140.33 237.918 146.574 236.683 151.111 230.951C152.998 228.621 153.088 233.631 150.1 238.687C147.563 242.974 144.126 244.512 143.722 250.128C142.599 263.851 139.881 280.231 138.062 292.301C123.149 299.78 107.898 309.893 100.644 325.923L100.734 325.9ZM139.23 291.672C141.423 279.824 142.99 267.861 143.924 255.836H178.759C180.062 263.642 189.405 264.69 190.91 276.806C172.985 278.624 155.499 283.654 139.23 291.672ZM234.056 272.869C233.497 274.701 233.135 276.592 232.978 278.507C232.079 288.387 228.037 291.672 217.458 292.487C206.228 293.443 194.055 289.761 192.348 277.202C190.843 266.018 187.384 266.997 181.836 259.168C180.174 256.838 178.692 252.504 181.836 250.687C183.381 252.447 185.316 253.791 187.474 254.601C192.325 265.902 193.965 278.927 208.07 280.371C235.336 283.004 229.227 267.603 237.874 254.159C239.555 253.352 241.078 252.231 242.366 250.85C243.346 251.7 244.023 252.868 244.288 254.165C244.553 255.462 244.39 256.813 243.826 258.003C241.625 263.525 236.324 265.622 234.056 272.869ZM289.712 220.606C290.475 222.377 291.261 224.124 291.958 225.895C290.857 224.427 285.467 218.323 283.67 221.585C282.749 223.286 284.681 225.825 285.467 227.34C282.452 227.894 279.758 229.629 277.943 232.186C275.068 221.352 285.22 215.946 289.712 220.606ZM279.56 236.474C279.133 235.379 278.684 234.26 278.235 233.165C280.205 230.771 282.854 229.083 285.804 228.342C287.067 231.048 287.887 233.954 288.229 236.94C288.836 242.904 284.433 238.641 282.3 236.59C281.469 235.705 280.076 235.332 279.447 236.474H279.56ZM328.185 370.24C335.62 359.429 335.934 345.472 331.622 333.263C325.513 315.997 310.981 303.905 295.686 295.447C292.745 281.357 290.838 267.056 289.981 252.667C289.981 250.477 282.839 248.986 280.615 240.388C280.211 238.827 279.38 234.726 282.098 237.662C284.815 240.598 289.442 243.301 289.24 236.87C288.97 229.251 283.984 224.171 284.433 222.447C284.995 220.28 289.15 224.357 289.824 225.057C291.579 227.06 293.172 229.211 294.585 231.487C294.832 231.86 295.439 231.487 295.214 231.138C294.69 230.206 294.151 229.274 293.597 228.342C293.956 227.55 289.914 220.14 290.632 219.441C291.351 218.742 294.585 221.165 295.304 221.771C299.055 225.15 299.235 227.41 300.515 229.157C300.573 229.179 300.636 229.179 300.694 229.157C300.774 229.164 300.854 229.139 300.916 229.087C300.979 229.035 301.02 228.96 301.031 228.878C300.897 227.387 300.066 226.548 299.661 225.523C299.257 224.497 298.426 222.191 298.988 221.375C299.257 221.142 300.807 222.33 300.986 222.517C302.468 223.989 303.705 225.705 304.647 227.596C311.52 239.782 309.454 247.634 310.622 248.823C327.669 268.744 345.884 297.916 349.567 324.246C352.06 342.513 346.513 363.809 328.073 370.24H328.185Z" fill="black"/>
<path d="M165.306 116.501C165.822 116.338 165.62 115.569 165.148 115.499C156.973 115.662 148.281 115.499 140.218 115.732C139.589 115.732 139.679 116.734 140.218 116.827C144.35 117.526 161.712 117.643 165.306 116.501ZM379.732 241.11C382.786 239.736 397.7 233.491 399.474 232.443C399.508 232.412 399.534 232.374 399.553 232.332C399.571 232.29 399.581 232.244 399.581 232.198C399.581 232.152 399.571 232.106 399.553 232.064C399.534 232.022 399.508 231.984 399.474 231.953C399.438 231.897 399.387 231.852 399.328 231.823C399.268 231.794 399.202 231.783 399.137 231.79C395.364 232.606 383.146 238.641 379.35 240.598C379.148 240.761 379.417 241.25 379.732 241.11ZM229.092 186.401L181.477 187.147C183.521 211.1 229.699 211.472 229.092 186.401ZM229.092 135.141C229.092 135.242 229.129 135.339 229.196 135.413C229.263 135.487 229.354 135.531 229.452 135.537C237.066 135.723 253.169 136.213 259.256 135.351C259.75 135.351 259.593 134.489 259.256 134.489C250.654 134.489 238.233 134.489 229.564 134.745C229.507 134.731 229.447 134.73 229.39 134.743C229.333 134.757 229.279 134.784 229.234 134.822C229.188 134.86 229.152 134.909 229.127 134.964C229.102 135.02 229.091 135.08 229.092 135.141ZM163.958 100.191C164.587 100.191 164.317 99.2586 163.801 99.1654C148.326 99.6314 131.481 99.981 116.388 100.33C116.337 100.339 116.289 100.358 116.246 100.386C116.202 100.414 116.165 100.451 116.135 100.494C116.106 100.538 116.085 100.587 116.075 100.639C116.064 100.691 116.064 100.744 116.073 100.796C116.086 100.878 116.124 100.953 116.18 101.012C116.236 101.07 116.309 101.109 116.388 101.123C127.371 101.938 149.696 100.703 163.958 100.191ZM172.605 94.8549C173.122 94.8549 173.279 93.9229 172.605 93.853C167.574 93.2239 117.96 94.0627 114.501 94.8549C114.164 94.8549 114.187 95.5539 114.501 95.5539C127.236 95.5306 157.759 94.6219 172.605 94.8549ZM75.9147 261.684C77.6451 258.364 78.9728 254.835 79.8677 251.176C80.2859 249.919 80.3815 248.57 80.1453 247.263C79.909 245.956 79.3489 244.735 78.5201 243.72C79.3353 241.592 79.7545 239.323 79.7554 237.033C79.3062 233.235 75.4206 233.468 73.3318 236.38C64.9093 248.03 55.6109 266.671 55.8804 281C55.7232 281.676 56.0601 282.445 56.644 281.886C66.6156 271.637 73.9914 258.991 78.1158 245.071C80.9233 249.405 76.5885 256.885 74.9714 261.265C74.7693 261.848 75.6228 262.197 75.9147 261.684ZM56.7339 280.045C56.8986 277.459 57.2439 274.89 57.767 272.356L61.2259 274.942C59.766 276.62 58.2611 278.367 56.7339 280.045ZM77.5992 242.765C76.0783 241.441 74.2517 240.549 72.2987 240.178C73.0491 238.756 73.9534 237.427 74.9939 236.217C76.0046 235.239 77.9361 234.843 78.5201 236.497C78.7183 238.618 78.4018 240.757 77.5992 242.718V242.765ZM134.76 124.073C133.772 124.493 128.022 133.393 126.966 134.955C125.66 133.153 124.152 131.518 122.474 130.085C122.381 130.04 122.274 130.031 122.175 130.061C122.076 130.091 121.991 130.158 121.935 130.248C121.903 130.338 121.903 130.437 121.935 130.528C123.216 132.703 124.722 134.727 126.427 136.562C126.488 136.632 126.563 136.688 126.646 136.726C126.729 136.765 126.819 136.785 126.91 136.785C127.001 136.785 127.091 136.765 127.174 136.726C127.258 136.688 127.332 136.632 127.393 136.562V136.446L134.76 126.007C135.793 124.493 135.501 123.677 134.76 124.073ZM269.52 111.841C269.992 111.841 270.082 110.909 269.52 110.839C255.507 110.116 241.463 110.326 227.475 111.468C227.003 111.468 227.048 112.33 227.475 112.307C238.076 112.214 257.953 112.563 269.52 111.841Z" fill="black"/>
<path d="M134.76 138.193C135.659 137.82 133.862 130.877 133.615 129.782C133.598 129.685 133.545 129.599 133.467 129.542C133.39 129.485 133.294 129.462 133.201 129.477C133.107 129.492 133.023 129.545 132.966 129.623C132.909 129.702 132.884 129.801 132.896 129.898C133.166 132.391 133.435 134.908 133.884 137.354C130.133 137.657 126.742 137.634 123.081 137.797C122.407 134.768 121.823 130.807 120.835 127.801C123.66 128.048 126.5 128.048 129.325 127.801C131.189 127.801 131.054 126.59 129.46 126.613C128.516 126.613 120.476 126.45 120.476 127.452C119.42 127.452 121.644 137.214 121.778 137.867C121.802 137.983 121.86 138.088 121.945 138.168C122.029 138.248 122.136 138.297 122.25 138.309C122.52 139.521 134.333 139.335 134.76 138.193ZM270.778 130.015C270.758 129.924 270.71 129.843 270.641 129.784C270.572 129.725 270.486 129.691 270.396 129.688C256.786 129.316 242.231 129.991 228.441 129.968C228.037 129.968 228.014 130.667 228.441 130.714C240.524 131.552 259.211 132.065 270.486 130.527C270.588 130.495 270.674 130.424 270.728 130.329C270.782 130.235 270.8 130.122 270.778 130.015ZM122.564 121.347C125.715 121.438 128.868 121.29 131.998 120.904C133.952 121.417 130.964 108.695 130.605 108.113C130.558 108.003 130.478 107.912 130.376 107.853C130.275 107.794 130.159 107.771 130.044 107.786C128.022 107.786 118.634 107.786 117.309 108.089C115.692 106.738 118.05 118.225 118.387 119.6C119.038 121.906 120.476 121.347 122.564 121.347ZM117.578 108.881C121.723 109.407 125.909 109.469 130.066 109.068L131.504 119.833L119.734 120.462C119.824 119.669 117.848 110.419 117.578 108.881ZM260.132 116.734C260.251 116.734 260.365 116.685 260.45 116.597C260.534 116.51 260.581 116.391 260.581 116.268C260.581 116.144 260.534 116.025 260.45 115.938C260.365 115.851 260.251 115.802 260.132 115.802C257.347 115.219 233.405 116.105 228.441 116.547C228.059 116.547 228.059 117.223 228.441 117.246C231.136 117.363 257.459 117.433 260.132 116.734ZM71.5353 190.641C71.962 190.641 75.1289 188.777 75.87 191.806C76.9032 195.954 80.946 193.461 81.5974 190.292C82.4284 186.378 78.8348 183.302 74.5898 183.302C65.9652 183.302 67.9417 191.061 71.5353 190.641ZM74.5898 184.211C79.4412 184.374 82.4284 189.127 79.4861 191.923C76.9706 194.253 77.2401 190.898 76.0273 189.593C73.6016 187.263 71.67 190.082 70.3 188.894C67.4925 186.564 72.8604 184.071 74.5898 184.211ZM127.191 146.255C123.665 146.255 123.53 145.649 123.979 149.214C124.114 150.216 124.81 157.299 125.978 157.369C126.225 158.487 136.31 158.091 137.59 157.695C139.32 157.695 137.59 152.173 137.59 151.544C136.108 143.435 137.95 145.952 127.191 146.255ZM126.54 156.833C125.978 153.897 125.552 150.006 124.743 147.21C128.421 147.583 132.13 147.442 135.771 146.791C135.999 150.035 136.488 153.254 137.231 156.414C133.727 156.577 130.089 156.763 126.54 156.833ZM274.304 93.4801C270.172 93.084 210.653 93.4801 203.106 94.0859C203.009 94.1032 202.921 94.1589 202.863 94.2415C202.804 94.324 202.779 94.427 202.792 94.5286C202.808 94.609 202.846 94.6826 202.902 94.7406C202.958 94.7986 203.029 94.8383 203.106 94.8548C209.507 95.2043 269.722 95.0413 274.304 94.5054C274.435 94.5054 274.561 94.4513 274.654 94.3552C274.746 94.2591 274.798 94.1287 274.798 93.9927C274.798 93.8568 274.746 93.7264 274.654 93.6303C274.561 93.5342 274.435 93.4801 274.304 93.4801ZM172.942 110.606C173.459 110.489 173.279 109.767 172.83 109.674L138.713 110.559C138.664 110.565 138.616 110.581 138.572 110.606C138.529 110.632 138.492 110.667 138.462 110.709C138.432 110.75 138.412 110.798 138.401 110.848C138.39 110.899 138.389 110.951 138.399 111.002C138.412 111.083 138.449 111.159 138.505 111.217C138.562 111.276 138.634 111.315 138.713 111.328C147.27 111.98 165.508 112.167 172.942 110.606ZM308.219 176.102C308.376 177.873 310.083 195.534 310.712 196.816C315.204 205.903 331.735 206.136 332.094 192.692C332.723 187.1 334.901 171.046 334.048 167.062C334.295 165.757 335.598 160.072 335.845 157.066C335.845 156.577 336.743 143.272 334.946 145.3C332.548 148.612 330.422 152.127 328.59 155.808C328.276 157.229 327.961 158.627 327.624 160.025C326.631 159.636 325.599 159.363 324.547 159.21C324.547 158.254 323.874 153.594 323.559 151.73C322.009 148.608 320.415 145.812 319.067 142.573C317.158 137.704 317.113 137.61 316.574 142.969C315.674 148.429 315.674 154.007 316.574 159.466C306.4 161.656 307.455 167.877 308.197 176.102H308.219ZM332.79 150.472C333.065 150.748 333.394 150.959 333.754 151.092C334.115 151.224 334.498 151.275 334.879 151.241V157.113C333.933 157.208 332.978 157.104 332.071 156.808C331.164 156.512 330.324 156.029 329.601 155.388C330.701 153.781 331.847 152.126 332.79 150.472ZM329.556 156.6C331.044 157.697 332.829 158.277 334.654 158.254C333.913 162.588 333.172 166.899 332.588 171.256C331.824 174.098 328.096 175.124 325.67 175.473C327.153 169.322 328.276 162.705 329.556 156.53V156.6ZM325.064 173.795C324.955 174.38 324.88 174.972 324.839 175.566L319.359 175.706L317.113 153.757C318.129 154.075 319.204 154.131 320.245 153.92C321.286 153.709 322.262 153.237 323.088 152.546C323.088 152.546 324.547 173.446 325.064 173.726V173.795ZM317.383 146.301C317.727 146.395 318.086 146.414 318.437 146.358C318.789 146.302 319.125 146.171 319.427 145.975L322.504 151.707C321.697 152.331 320.762 152.752 319.772 152.938C318.783 153.124 317.765 153.069 316.799 152.779C316.76 150.581 316.956 148.385 317.383 146.232V146.301ZM332.947 173.143C332.543 179.015 331.824 191.41 330.365 196.956C327.782 204.155 316.529 204.272 311.566 196.956C310.622 188.871 309.679 180.646 308.758 172.677C312.958 178.991 329.286 178.222 332.947 173.073V173.143Z" fill="black"/>
<path d="M31.0176 198.82C34.4361 200.672 38.045 202.118 41.776 203.131C34.6112 213.36 55.1172 227.945 73.8714 220.163C82.4736 216.598 91.0758 205.274 82.6533 197.422C91.6373 189.896 94.8041 179.038 94.4223 167.132C93.8384 148.771 86.0223 135.257 68.1216 130.9C59.3026 128.759 50.0611 129.5 41.6637 133.021L38.1824 126.776C39.2829 126.17 40.4284 125.588 41.5514 125.075C44.5161 124.027 43.6177 121.767 41.8658 122.442C7.45702 135.467 -0.493838 182.417 31.0176 198.82ZM42.0455 201.5C41.4166 199.17 43.1011 196.84 42.315 194.3C40.5182 188.265 32.9941 191.76 31.085 187.683C28.9962 183.232 34.5663 182.464 35.6893 179.271C35.8879 178.713 35.9385 178.109 35.8358 177.523C35.7331 176.937 35.4809 176.39 35.1053 175.939C31.8711 171.745 24.3919 176.172 26.5256 166.386C28.1427 159 35.0155 155.505 40.0016 158.767C44.9878 162.029 47.9749 164.219 54.2862 160.398C64.7975 153.991 63.4948 167.388 60.2831 171.443C58.5761 173.633 55.4766 173.516 53.0958 174.448C45.3247 177.477 45.3696 182.906 51.5236 184.234C53.9044 184.747 56.959 184.514 58.8232 186.378C63.8767 191.481 53.4327 202.385 50.1311 204.179C48.3568 203.806 42.9439 202.711 42.0455 201.5ZM70.5473 132.951C83.7763 137.215 90.7613 147.14 92.648 161.33C93.5447 167.454 93.3238 173.698 91.9966 179.737C91.4576 180.506 83.8661 182.673 81.418 179.411C80.4728 178.093 79.8417 176.561 79.5763 174.941C79.3108 173.321 79.4186 171.66 79.8907 170.091C81.3506 166.177 86.3142 162.728 84.787 158.721C82.6757 153.175 76.4992 160.748 73.8938 159.187C69.9858 156.857 77.3078 152.383 68.9526 150.775C65.8756 150.193 63.3601 151.498 61.0916 147.979C55.9033 139.917 69.4018 132.927 70.5473 132.881V132.951ZM44.9204 143.273C45.0173 143.431 45.1641 143.551 45.336 143.61C45.5079 143.67 45.6943 143.666 45.8637 143.599C46.0583 143.516 46.214 143.358 46.2979 143.157C46.3817 142.957 46.3871 142.731 46.3129 142.527L42.2252 134.255C50.5558 130.79 59.7275 130.138 68.436 132.391C57.206 136.236 55.8809 149.377 63.944 151.637C65.651 152.127 73.2874 151.428 71.9623 154.806C71.6933 155.354 71.5425 155.957 71.5203 156.571C71.498 157.186 71.6049 157.798 71.8336 158.365C72.0622 158.933 72.4071 159.442 72.8443 159.857C73.2815 160.273 73.8006 160.585 74.3655 160.771C77.5099 161.354 80.8789 156.437 83.1923 158.441C87.2351 161.936 76.6789 167.342 78.4757 175.124C79.8233 181.089 82.2041 182.976 88.0437 182.114C89.3228 182 90.5635 181.603 91.6822 180.949C86.8533 198.494 68.7954 206.579 52.2873 204.459C55.6114 201.29 60.7772 194.999 61.2713 190.479C62.0349 182.464 53.1632 184.071 49.9065 182.3C45.4145 179.97 51.8381 175.916 55.9483 174.984C57.2951 174.754 58.5987 174.306 59.8114 173.656C66.5494 169.369 64.6852 152.127 54.9151 158.488C46.56 163.917 43.9771 159.303 40.0915 157.229C33.87 153.944 25.3352 159.117 24.9085 168.88C24.6614 175.52 29.9395 174.099 33.0166 175.87C33.568 176.084 34.0285 176.494 34.3162 177.027C34.604 177.561 34.7006 178.182 34.5888 178.782C33.87 181.112 30.6133 181.578 29.7149 184.397C29.3597 185.497 29.3727 186.689 29.7517 187.78C30.1308 188.871 30.8539 189.797 31.8037 190.409C34.746 192.18 39.9567 190.642 41.192 194.859C41.7984 196.91 40.608 199.007 40.7428 201.08C35.0124 198.944 29.9665 195.198 26.1674 190.262C22.3683 185.325 19.9653 179.39 19.2261 173.12C17.2047 157.276 26.5256 141.875 40.2262 135.141C41.6412 137.844 43.4156 140.64 44.9204 143.273ZM24.7063 137.052C28.078 133.424 31.9634 130.352 36.2283 127.941C37.4802 129.934 38.6273 131.995 39.6647 134.116C32.6157 137.513 26.7491 143.084 22.866 150.069C18.9829 157.054 17.2725 165.112 17.9683 173.143C18.4365 177.747 19.8273 182.197 22.0513 186.21C24.2754 190.222 27.2836 193.708 30.8828 196.444C9.41104 184.071 8.51264 154.899 24.7063 137.052ZM264.422 153.478C262.491 153.035 233.607 152.896 229.52 153.478C229.418 153.478 229.321 153.52 229.25 153.594C229.178 153.668 229.138 153.769 229.138 153.874C229.138 153.979 229.178 154.08 229.25 154.154C229.321 154.229 229.418 154.27 229.52 154.27C231.069 154.503 261.256 155.039 264.422 154.27C264.527 154.246 264.621 154.186 264.688 154.099C264.755 154.012 264.792 153.904 264.792 153.793C264.792 153.681 264.755 153.573 264.688 153.486C264.621 153.4 264.527 153.339 264.422 153.315V153.478ZM274.013 99.8877C252.339 100.144 224.331 99.3751 204.791 99.8877C204.252 99.8877 204.297 100.68 204.791 100.727C212.989 101.659 267.41 101.589 274.013 100.727C274.077 100.721 274.139 100.702 274.196 100.67C274.253 100.638 274.303 100.595 274.343 100.543C274.383 100.49 274.412 100.43 274.429 100.365C274.445 100.301 274.449 100.233 274.44 100.167C274.404 100.082 274.344 100.009 274.268 99.9595C274.192 99.9096 274.103 99.8846 274.013 99.8877ZM271.61 148.422C258.471 148.119 242.052 148.958 228.06 148.585C227.655 148.585 227.565 149.191 228.06 149.237C236.662 150.123 263.591 151.008 271.699 149.377C272.126 149.261 272.171 148.422 271.61 148.422Z" fill="black"/>
</svg>
