<svg width="367" height="380" viewBox="0 0 367 380" fill="none" xmlns="http://www.w3.org/2000/svg">
<path d="M124.703 290.142C128.037 288.962 131.452 288.025 134.923 287.342L135.343 288.882C135.39 289.064 135.5 289.222 135.654 289.329C135.809 289.436 135.996 289.482 136.183 289.462L149.922 287.862C153.702 279.242 160.642 266.182 160.742 265.982C160.642 262.722 160.742 259.982 160.742 256.862C152.882 259.782 138.343 265.322 130.743 268.862C130.571 268.972 130.438 269.136 130.363 269.325C130.288 269.516 130.273 269.724 130.323 269.922C130.323 269.922 130.463 270.422 130.643 271.142C126.923 271.142 115.783 270.602 113.103 273.142C112.686 273.722 112.481 274.429 112.523 275.142C112.363 277.902 113.743 299.342 115.943 305.642C117.083 308.942 119.483 308.582 121.123 305.422C123.021 300.664 124.24 295.661 124.743 290.562C124.743 290.302 124.683 290.322 124.703 290.142ZM122.403 272.242C124.843 272.042 125.603 272.082 130.843 271.922C131.783 275.482 133.723 282.802 134.723 286.542C131.194 287.089 127.711 287.897 124.303 288.962C123.241 283.445 122.605 277.856 122.403 272.242Z" fill="black"/>
<path d="M308.783 97.2021C309.283 96.5021 308.643 95.6021 308.103 94.9021C309.633 93.329 311.33 91.9272 313.163 90.7221C316.258 89.1799 319.086 87.1548 321.543 84.7221C322.563 83.6621 324.483 81.4821 323.763 80.2021C323.043 78.9221 321.763 78.8421 320.023 79.5821C320.776 78.7908 321.393 77.8777 321.843 76.8821C322.403 75.3221 321.083 74.0621 318.223 75.2221C319.263 73.5621 319.503 71.8221 317.743 70.9821C316.323 70.3021 314.243 71.9221 313.043 72.9821C310.686 75.041 308.474 77.2595 306.423 79.6221C305.163 76.9821 303.163 73.9421 300.663 74.9021C298.163 75.8621 300.103 80.1621 301.383 82.5021L296.843 85.6421C296.156 85.2715 295.381 85.0988 294.603 85.1421C289.443 86.0221 265.743 104.062 263.343 104.062C261.503 104.062 235.223 91.4621 212.503 87.8221C212.459 87.6857 212.378 87.565 212.268 87.473C212.158 87.381 212.024 87.3217 211.883 87.3021C207.919 86.6257 203.903 86.3246 199.883 86.4021C199.761 86.4104 199.643 86.445 199.536 86.5035C199.428 86.5624 199.336 86.6439 199.263 86.7421H197.583C197.183 85.1221 195.703 81.3821 195.183 79.9421C196.543 78.7621 198.423 78.1621 199.403 76.2621C201.203 72.7421 201.123 66.6221 200.623 62.7021C202.883 60.9821 202.943 58.2221 202.423 55.4021C202.223 54.2621 201.603 51.6821 200.643 51.0421C200.103 50.6821 198.963 51.0421 197.983 51.4021C197.003 49.1221 197.003 50.1621 197.403 49.2421C197.59 48.8181 197.698 48.3643 197.723 47.9021C198.783 48.2221 200.983 46.1021 200.223 43.3021C199.824 42.2999 199.336 41.3359 198.763 40.4221C199.043 39.7421 199.643 38.9221 197.763 36.4221C196.953 35.5486 195.901 34.9359 194.743 34.6621H193.823C193.159 33.6988 192.184 32.9926 191.063 32.6621C189.37 32.2301 187.573 32.4817 186.063 33.3621C185.663 33.6621 185.343 34.0621 184.943 34.3421C184.038 33.793 183.001 33.5028 181.943 33.5028C180.884 33.5028 179.848 33.793 178.943 34.3421C178.413 34.5497 177.931 34.8624 177.526 35.261C177.121 35.6599 176.799 36.1363 176.583 36.6621C175.603 36.3239 174.563 36.1937 173.53 36.2799C172.498 36.3661 171.493 36.6664 170.583 37.1621C167.128 39.0355 164.543 42.1872 163.383 45.9421C163.351 46.5083 163.351 47.0759 163.383 47.6421H163.163C160.163 47.2021 156.343 54.3221 159.403 59.8621C159.763 60.5221 160.223 61.1421 160.663 61.8621C161.943 63.8621 161.443 64.4621 164.303 66.9021C165.143 67.6221 165.283 67.5621 165.803 68.0021C166.323 68.4421 166.123 68.2221 166.423 69.3421C166.586 70.0017 166.879 70.6228 167.284 71.1686C167.69 71.7144 168.199 72.1744 168.783 72.5221C168.996 74.4784 169.83 76.3148 171.163 77.7621C171.584 78.2348 172.078 78.6392 172.623 78.9621C172.77 79.045 172.934 79.093 173.103 79.1021C173.703 82.8221 174.443 87.6621 174.763 89.7221L172.983 90.6821C170.654 91.6192 168.39 92.7083 166.203 93.9421C166.031 94.061 165.91 94.2388 165.863 94.4421C163.743 95.5621 161.743 96.6221 160.603 97.3021C144.723 106.722 99.6226 168.822 99.1626 171.662C99.1121 171.825 99.1121 171.999 99.1626 172.162C99.8092 173.194 100.597 174.129 101.503 174.942C101.224 175.452 100.888 175.927 100.503 176.362C96.5026 178.982 90.503 182.882 87.283 186.362C87.0568 186.564 86.8873 186.821 86.7913 187.107C86.695 187.394 86.675 187.701 86.7335 187.997C86.7921 188.294 86.927 188.57 87.1252 188.801C87.3233 189.029 87.5775 189.202 87.8626 189.302C88.4626 189.502 88.563 189.442 92.463 187.302C91.391 188.242 90.5143 189.384 89.883 190.662C89.623 191.762 90.623 192.402 91.883 192.202C92.5917 192.016 93.2666 191.719 93.883 191.322C93.5219 191.879 93.3303 192.529 93.3303 193.192C93.3303 193.856 93.5219 194.505 93.883 195.062C95.883 197.582 101.123 189.642 103.883 187.682C105.003 189.102 106.523 192.422 108.943 191.542C111.043 190.762 108.743 186.142 108.943 184.802C109.756 184.021 110.626 183.299 111.543 182.642C113.086 183.785 114.85 184.597 116.723 185.022C120.023 185.022 154.463 150.262 157.083 147.482C156.143 156.322 151.403 194.262 152.403 201.642C152.863 204.982 160.883 205.462 164.263 205.642C163.243 229.642 162.563 266.002 162.383 266.382C157.083 277.802 155.643 280.922 153.863 284.382C150.623 290.582 136.983 313.462 135.443 318.662C135.223 319.482 135.203 319.802 136.063 321.322C133.486 324.032 131.094 326.912 128.903 329.942C127.803 331.942 132.523 350.582 135.863 357.182C136.623 358.662 137.863 360.942 139.523 360.884C144.523 360.702 144.503 342.742 144.363 337.722C144.362 337.567 144.305 337.419 144.203 337.302C145.109 335.949 146.098 334.654 147.163 333.422C147.799 333.861 148.467 334.247 149.163 334.582C149.843 334.882 150.603 334.362 151.163 333.902C157.823 328.662 193.743 283.902 201.443 262.782C204.943 253.142 209.603 239.822 210.923 230.382C211.73 224.414 211.804 218.369 211.143 212.382C211.143 212.297 211.176 212.216 211.236 212.156C211.296 212.096 211.378 212.062 211.463 212.062C211.548 212.062 211.63 212.096 211.69 212.156C211.75 212.216 211.783 212.297 211.783 212.382C212.784 218.402 212.979 224.53 212.363 230.602C210.883 243.702 200.543 271.002 195.023 281.042C199.783 280.162 209.463 278.242 214.143 276.842C229.743 272.102 244.143 257.962 245.403 242.082C245.811 234.601 245.811 227.104 245.403 219.622C245.268 209.294 243.926 199.017 241.403 189.002C245.643 186.702 249.523 184.002 250.783 181.522C253.483 176.222 246.343 145.722 244.783 137.162C253.323 138.102 267.863 139.802 274.643 134.502C282.403 128.262 299.163 110.702 308.783 97.2021ZM143.283 336.622C139.683 334.442 134.643 329.262 133.883 325.202C134.703 324.162 135.563 323.202 136.363 322.122C139.073 326.259 142.453 329.916 146.363 332.942C145.264 334.107 144.236 335.336 143.283 336.622ZM302.283 83.0621C302.386 82.9963 302.461 82.893 302.49 82.7741C302.519 82.6548 302.503 82.529 302.443 82.4221C301.743 81.1221 299.643 76.5421 301.103 76.0221C301.943 75.7021 302.683 76.2221 303.303 76.9221C304.25 78.1232 304.986 79.4755 305.483 80.9221C305.519 81.0395 305.588 81.145 305.681 81.2268C305.773 81.3086 305.886 81.3635 306.006 81.3864C306.128 81.409 306.253 81.3981 306.37 81.3552C306.484 81.3123 306.586 81.2384 306.663 81.1421C308.663 78.9221 313.343 73.8621 315.983 72.5021C317.983 71.4621 318.463 73.3821 313.563 77.8621C312.438 78.7203 311.356 79.6348 310.323 80.6021C310.266 80.6806 310.234 80.7752 310.234 80.8723C310.234 80.969 310.266 81.0635 310.323 81.1421C310.323 81.6621 310.743 82.2421 311.463 81.7021C313.201 80.1759 315.039 78.7664 316.963 77.4821C317.944 76.7846 319.086 76.3443 320.283 76.2021C319.683 78.0421 314.103 83.0421 313.623 83.6021C313.471 83.7388 313.378 83.9293 313.364 84.1333C313.353 84.3373 313.419 84.5384 313.553 84.693C313.688 84.8475 313.876 84.9435 314.079 84.9603C314.284 84.977 314.486 84.913 314.643 84.7821C316.863 83.3421 320.743 79.9821 322.083 80.4821C323.423 80.9821 319.443 84.7021 318.443 85.5821C312.703 90.5621 314.183 87.3621 307.543 94.1221C304.653 90.9559 301.334 88.2093 297.683 85.9621L302.283 83.0621ZM215.383 178.722C215.043 175.962 214.623 172.982 214.103 169.882L214.963 168.742C218.963 163.602 220.163 155.422 219.783 149.002C221.923 158.382 223.623 167.602 224.923 176.762L215.383 178.722ZM185.643 110.242C180.383 106.242 171.923 99.3421 167.003 94.6221L175.003 90.6221C182.35 97.4839 188.638 105.397 193.663 114.102C201.348 128.219 207.048 143.328 210.603 159.002L182.083 118.662L185.803 110.942C185.853 110.823 185.863 110.692 185.834 110.567C185.806 110.441 185.739 110.328 185.643 110.242ZM199.163 87.5621C199.283 87.7821 200.663 90.7221 202.763 95.8621C202.763 96.0821 202.383 101.082 202.203 102.842C199.65 101.83 197.243 100.485 195.043 98.8421C195.483 97.1021 197.463 89.2021 197.603 87.4221L199.163 87.5621ZM192.063 109.042C192.203 108.682 192.343 108.202 192.503 107.642L193.843 108.342C194.603 108.842 194.303 107.322 194.983 111.722C194.983 112.462 195.183 113.282 195.223 114.182C194.303 112.522 193.163 110.742 192.083 109.042H192.063ZM190.943 107.362C187.164 102.003 182.863 97.0319 178.103 92.5221L193.163 99.0621C192.583 100.442 191.743 104.662 190.963 107.362H190.943ZM206.323 119.082C204.323 113.622 202.783 107.522 202.023 105.922C202.068 105.423 202.068 104.921 202.023 104.422C202.313 104.53 202.614 104.597 202.923 104.622C203.116 104.624 203.303 104.557 203.45 104.432C203.598 104.307 203.694 104.133 203.723 103.942C203.883 103.282 204.143 99.9421 204.183 99.2021C210.001 113.891 214.858 128.943 218.723 144.262C207.423 120.222 209.163 127.182 206.343 119.082H206.323ZM222.863 157.262C218.303 135.402 210.283 108.142 201.163 87.9421C204.513 87.9439 207.856 88.2115 211.163 88.7421C212.863 103.942 211.443 103.422 212.583 104.022C213.723 104.622 220.583 107.382 221.603 107.802C221.503 109.342 222.943 153.382 222.883 157.262H222.863ZM199.843 52.3221C200.886 54.5973 201.253 57.1239 200.903 59.6021C200.739 60.233 200.406 60.8061 199.936 61.2577C199.466 61.7097 198.881 62.0224 198.244 62.1613C197.61 62.3003 196.946 62.2599 196.331 62.0446C195.716 61.8293 195.174 61.4475 194.763 60.9421C193.808 58.9319 193.091 56.8177 192.623 54.6421C193.163 53.9421 198.923 52.5421 199.843 52.3221ZM172.323 72.3221C171.593 71.9893 170.844 71.6959 170.083 71.4421C169.571 71.2319 169.116 70.9075 168.75 70.4937C168.383 70.0799 168.116 69.5879 167.97 69.0548C167.823 68.5221 167.799 67.9628 167.903 67.4195C168.006 66.8766 168.231 66.3643 168.563 65.9221C169.823 64.8621 170.963 64.9221 172.003 66.5021C172.663 67.7221 172.643 67.8221 172.943 67.9421C173.03 67.9799 173.123 67.9992 173.216 67.9981C173.31 67.997 173.403 67.9759 173.488 67.9363C173.573 67.8966 173.65 67.8388 173.71 67.7675C173.771 67.6963 173.816 67.6126 173.843 67.5221C174.139 66.2704 174.186 64.9723 173.983 63.7021C173.743 62.3221 173.703 56.2021 173.743 56.0021C174.328 56.3101 174.983 56.4552 175.643 56.4221C179.263 56.2821 179.983 54.4221 181.423 52.9021C183.083 53.0621 183.423 53.8621 185.303 52.9021C186.183 52.4013 186.991 51.7824 187.703 51.0621C188.278 51.2973 188.833 51.5784 189.363 51.9021C190.561 52.4784 191.913 52.6555 193.219 52.4072C194.526 52.1588 195.719 51.4981 196.623 50.5221C196.843 50.9421 197.043 51.3621 197.223 51.8021C195.384 52.3726 193.654 53.2443 192.103 54.3821C191.763 54.8021 192.263 57.0821 192.383 57.6221C190.708 57.833 189.086 58.3552 187.603 59.1621C187.303 58.1221 186.643 56.1821 185.603 55.6421C185.29 55.5464 184.956 55.5464 184.643 55.6421C182.843 55.9221 176.383 57.8621 175.603 58.9221C174.923 59.6621 176.863 65.3821 177.463 66.3221C179.763 69.8821 186.503 68.8421 187.763 64.6821C188.074 63.2861 188.074 61.8381 187.763 60.4421C188.343 60.4421 190.083 59.8221 190.283 59.7621C191.663 62.8621 192.063 63.0421 193.663 66.3821C193.443 66.5621 193.083 66.8621 192.783 67.0621C191.363 68.0021 191.063 67.8421 191.143 68.2421C191.166 68.3213 191.218 68.3897 191.288 68.4337C191.358 68.4781 191.441 68.4952 191.523 68.4821C192.363 68.3621 193.183 68.1337 193.963 67.8021C194.43 67.6279 194.814 67.2853 195.043 66.8421C195.603 65.5821 192.503 60.8421 191.283 59.4221C191.523 59.4221 192.083 59.0221 192.503 58.8021C193.063 61.0421 193.443 62.8021 195.603 63.6821C196.228 63.9177 196.893 64.025 197.559 63.9977C198.226 63.9701 198.879 63.8083 199.483 63.5221C199.803 67.0421 199.743 72.7621 198.063 75.8821C197.203 77.5021 195.083 78.1221 193.723 79.4621C193.323 79.8421 193.583 80.3821 193.723 80.9621C195.943 87.1421 195.983 87.1221 195.863 87.9221C195.274 91.2424 194.453 94.5173 193.403 97.7221C192.903 97.5021 187.283 94.5221 176.283 90.2421C175.943 87.9821 174.123 75.9221 173.543 73.7021C173.583 72.9221 173.483 72.7421 172.323 72.2221V72.3221ZM186.323 64.1621C185.683 66.3421 182.663 67.2821 180.503 66.6821C178.343 66.0821 178.203 64.9821 177.183 62.3821C176.704 61.389 176.374 60.3308 176.203 59.2421C176.863 58.5221 184.083 57.0421 184.983 56.9021C186.244 59.0617 186.719 61.5923 186.323 64.0621V64.1621ZM108.063 184.242C107.303 184.982 108.323 187.402 108.483 189.502C108.483 189.682 108.483 190.462 108.363 190.522C107.263 190.882 106.243 189.222 105.623 188.222C105.003 187.222 104.383 185.862 103.403 186.222C101.403 187.162 96.7626 193.322 94.9426 193.962C94.0226 192.202 99.283 187.182 99.463 186.902C99.5401 186.774 99.5804 186.625 99.5797 186.477C99.579 186.327 99.5372 186.179 99.459 186.052C99.3804 185.924 99.2684 185.821 99.1353 185.75C99.0019 185.682 98.8524 185.652 98.703 185.662C98.343 185.662 98.1026 185.982 97.5426 186.482C95.8393 188.144 93.8899 189.534 91.7626 190.602C93.6913 188.389 95.7553 186.299 97.9426 184.342C98.051 184.23 98.127 184.092 98.163 183.942C98.163 183.942 97.743 182.882 96.923 183.302C95.763 183.942 90.1226 187.202 88.343 188.042C88.103 187.882 88.243 187.642 88.343 187.402C91.1626 183.942 97.363 179.742 101.163 177.082C101.609 176.622 101.98 176.097 102.263 175.522C104.895 177.97 107.702 180.224 110.663 182.262C109.751 182.861 108.882 183.522 108.063 184.242ZM154.603 202.422C154.163 202.142 153.843 201.882 153.783 201.522C152.683 193.362 158.803 147.122 158.703 145.302C158.703 145.195 158.681 145.09 158.639 144.991C158.599 144.893 158.538 144.804 158.461 144.729C158.384 144.655 158.294 144.596 158.194 144.557C158.096 144.518 157.99 144.5 157.883 144.502C156.863 144.502 158.663 144.502 133.183 168.902C131.503 170.482 118.663 182.762 116.523 183.582C113.583 183.362 102.523 174.542 100.723 171.762C104.203 164.722 146.403 106.802 161.003 97.9421C162.123 97.2621 164.043 96.2021 166.143 95.0821C166.87 95.7672 167.651 96.389 168.483 96.9421C173.123 101.342 179.583 106.822 184.483 110.942L180.663 118.522C180.604 118.622 180.574 118.736 180.574 118.852C180.574 118.968 180.604 119.082 180.663 119.182C211.683 163.682 211.223 163.182 211.423 163.182C213.411 173.465 214.648 183.879 215.123 194.342C215.123 197.162 215.123 196.922 215.243 196.722C215.363 196.522 215.243 196.862 215.243 196.862C210.403 202.142 162.503 207.062 154.603 202.422ZM265.163 136.162C256.103 137.422 245.863 135.542 243.883 135.462C242.783 130.13 240.59 125.085 237.443 120.642C237.394 120.577 237.324 120.533 237.244 120.518C237.166 120.504 237.084 120.519 237.016 120.562C236.948 120.605 236.898 120.672 236.876 120.75C236.856 120.828 236.864 120.911 236.903 120.982C238.063 123.342 241.943 133.522 242.903 136.002C242.603 136.962 251.943 175.582 249.303 180.782C246.943 185.482 233.203 191.402 228.243 193.102C227.263 181.967 225.659 170.897 223.443 159.942C224.123 154.182 223.243 119.942 222.983 107.282C222.974 107.135 222.926 106.993 222.841 106.873C222.756 106.752 222.639 106.659 222.503 106.602L213.523 102.822C213.483 98.0693 213.181 93.3221 212.623 88.6021C235.043 92.4821 261.163 105.302 263.343 105.322C266.503 105.322 289.983 87.3221 294.843 86.6021C297.003 86.2621 306.283 94.3621 307.363 96.6021C297.883 109.842 281.223 127.242 273.503 133.262C271.016 134.925 268.144 135.923 265.163 136.162Z" fill="black"/>
<path d="M184.263 60.1621C184.237 60.0308 184.188 59.9057 184.114 59.7941C184.041 59.6821 183.946 59.5857 183.836 59.5104C183.724 59.4355 183.601 59.3828 183.469 59.3555C183.339 59.3283 183.204 59.3272 183.072 59.3523C182.941 59.377 182.816 59.4275 182.704 59.501C182.592 59.5744 182.496 59.6686 182.421 59.7792C182.346 59.8897 182.292 60.0141 182.266 60.145C182.239 60.2759 182.237 60.4108 182.262 60.5421C182.663 62.5421 182.743 63.0021 183.622 63.0021C183.789 63.0024 183.952 62.9617 184.099 62.8832C184.246 62.8043 184.371 62.6904 184.461 62.5512C184.552 62.4123 184.608 62.2526 184.623 62.0868C184.636 61.921 184.609 61.7544 184.543 61.6021C184.483 61.2821 184.303 60.3421 184.263 60.1621ZM190.383 73.4021C191.683 73.7821 192.923 73.1621 192.883 72.8421C192.843 72.5221 192.883 72.6821 191.122 72.0221C189.943 71.5821 188.643 70.0221 188.183 70.2621C187.723 70.5021 188.423 71.7821 188.583 72.0221C189.011 72.6712 189.644 73.1573 190.383 73.4021ZM226.962 54.4021C224.342 65.3821 222.423 74.7021 222.103 76.5621C221.889 77.3712 221.849 78.2163 221.982 79.0421C223.042 81.3021 236.743 85.7621 238.483 84.8821C240.223 84.0021 244.743 73.8221 250.003 63.3221C253.224 63.425 256.449 63.1904 259.623 62.6221C262.964 62.009 266.216 60.981 269.303 59.5621C276.063 56.4421 283.463 43.0821 284.463 36.3621C285.212 29.0661 283.668 21.7181 280.043 15.3421C263.263 -13.7579 214.043 1.90208 218.043 34.2221C219.184 41.6174 222.262 48.5795 226.962 54.4021ZM239.163 78.2221C239.163 78.5421 238.803 78.5021 237.163 78.2221C233.808 77.8006 230.559 76.7632 227.583 75.1621C226.183 74.4021 225.803 74.2421 225.943 73.9021C226.083 73.5621 226.383 73.6821 228.543 74.2821C228.743 74.2821 234.942 76.2821 236.722 76.9021C239.022 77.9421 239.163 77.9421 239.163 78.2221ZM238.803 45.6821C240.937 45.7926 243.066 45.3523 244.983 44.4021C246.763 45.2646 248.689 45.7872 250.663 45.9421C247.303 52.2021 240.483 64.9621 238.283 71.7621L229.802 69.4221C231.802 64.5021 236.223 52.9821 238.763 45.6821H238.803ZM238.102 44.0221C236.609 43.7966 235.231 43.0875 234.181 42.0039C233.129 40.9199 232.463 39.5214 232.283 38.0221C231.723 34.0221 234.283 29.5421 238.143 30.6021C240.562 31.2621 240.863 33.1821 240.443 35.6021C240.083 37.3621 238.783 41.7821 238.063 43.9421L238.102 44.0221ZM243.543 39.2221C243.756 37.9133 244.248 36.6653 244.983 35.5621C245.332 34.9606 245.844 34.4693 246.459 34.1443C247.074 33.8188 247.768 33.6726 248.463 33.7221C249.943 34.1621 250.583 36.9621 249.363 38.7221C248.189 40.2781 246.731 41.5952 245.063 42.6021C244.488 42.2654 244.031 41.761 243.752 41.1566C243.474 40.5526 243.386 39.8773 243.503 39.2221H243.543ZM225.163 13.8021C234.123 3.02208 250.983 -1.25792 263.163 3.18208C269.779 5.45339 275.344 10.0523 278.823 16.1221C282.271 22.1893 283.746 29.1788 283.043 36.1221C282.123 42.3421 275.043 55.2621 268.823 58.1221C263.136 60.7163 256.931 61.9748 250.683 61.8021C250.003 61.8021 249.283 61.8021 249.023 62.2821C247.843 64.6821 245.683 69.3221 243.563 73.6821C242.097 72.9752 240.581 72.3864 239.023 71.9221C241.343 65.2821 248.663 52.2421 252.143 45.9221C255.157 46.1803 258.189 45.657 260.943 44.4021C261.686 44.0104 262.303 43.4148 262.721 42.6846C263.137 41.9548 263.339 41.121 263.299 40.281C263.259 39.4413 262.979 38.6304 262.496 37.9432C262.011 37.2563 261.341 36.7213 260.563 36.4021C257.463 34.8821 254.683 38.5221 253.063 41.5821C252.623 42.3821 252.123 43.3221 251.563 44.3821C249.944 44.2759 248.349 43.9461 246.823 43.4021C248.343 42.333 249.692 41.0384 250.823 39.5621C251.456 38.6057 251.776 37.4766 251.741 36.3304C251.704 35.1839 251.314 34.077 250.623 33.1621C250.079 32.5312 249.324 32.1199 248.499 32.0057C247.674 31.8915 246.836 32.0824 246.143 32.5421C244.741 33.4028 243.619 34.6493 242.909 36.1323C242.201 37.6152 241.934 39.2715 242.143 40.9021C242.359 41.8224 242.856 42.6537 243.563 43.2821C242.251 43.8254 240.843 44.0977 239.423 44.0821C240.223 41.7221 241.523 37.4621 241.863 35.7221C242.076 34.7301 242.123 33.7097 242.003 32.7021C241.848 31.8374 241.446 31.0355 240.846 30.3934C240.248 29.7508 239.474 29.2959 238.623 29.0821C233.763 27.7021 230.183 33.0821 230.883 38.1021C231.079 39.901 231.852 41.5883 233.084 42.9141C234.316 44.2399 235.943 45.1334 237.723 45.4621C235.163 52.6621 231.163 64.2821 229.163 69.2421L224.763 68.1021C227.583 53.9421 227.923 54.2821 227.522 54.1021C222.977 48.3083 220.071 41.4017 219.103 34.1021C218.631 30.4824 218.928 26.8043 219.971 23.3069C221.014 19.8093 222.784 16.5708 225.163 13.8021ZM252.923 44.5021C254.323 41.9621 257.123 36.4021 259.843 37.7621C260.386 37.9813 260.861 38.345 261.212 38.8137C261.566 39.2824 261.783 39.8384 261.843 40.4221C261.803 43.9421 256.323 44.5621 252.843 44.5021H252.923ZM329.483 53.3221C331.892 51.9046 334.739 51.4206 337.483 51.9621C340.496 52.0159 343.374 53.2206 345.528 55.3294C347.683 57.4381 348.944 60.2904 349.061 63.3021C347.25 62.2508 345.131 61.8552 343.063 62.1821C338.043 62.6221 331.483 65.3421 332.363 70.1821C333.083 74.1821 338.363 73.6421 342.363 72.5621C346.363 71.4821 349.541 69.5221 350.363 65.6621C355.221 69.2021 356.363 75.4021 356.563 81.4621C356.563 81.5468 356.595 81.6283 356.657 81.6883C356.715 81.7483 356.799 81.7821 356.883 81.7821C356.966 81.7821 357.05 81.7483 357.108 81.6883C357.17 81.6283 357.203 81.5468 357.203 81.4621C357.341 74.6821 356.123 68.0421 350.581 64.1821C350.639 62.4457 350.341 60.7159 349.712 59.097C349.083 57.4784 348.126 56.0046 346.912 54.7646C345.694 53.525 344.237 52.5454 342.631 51.8846C341.024 51.2243 339.299 50.8966 337.563 50.9221C334.786 50.5166 331.956 51.097 329.563 52.5621C328.823 52.9221 329.163 53.4621 329.483 53.3221ZM347.723 67.6621C345.463 70.6221 339.063 72.1621 336.103 71.6621C335.003 71.4821 334.103 71.0221 333.863 69.8821C333.143 65.8821 340.043 63.7021 344.163 63.5621C345.839 63.4334 347.512 63.8624 348.923 64.7821C348.77 65.8279 348.359 66.8184 347.723 67.6621ZM320.323 29.9421C322.463 27.3021 321.023 22.7021 315.043 22.6821C312.723 22.6821 311.603 25.0421 311.763 27.3021C312.123 32.6821 318.183 32.5221 320.323 29.9421ZM313.163 27.2021C313.163 25.8821 313.783 24.1621 315.163 24.1821C318.383 24.1821 319.863 25.6821 319.863 27.3421C319.783 31.1221 312.903 33.0821 313.163 27.2021ZM312.343 253.942C294.763 246.922 286.603 280.902 272.243 310.102C272.151 311.329 272.192 312.564 272.363 313.782C272.363 316.842 272.703 337.102 274.483 339.402C274.963 340.322 276.983 339.402 277.923 338.822C285.906 333.881 293.429 328.23 300.403 321.942C300.463 321.874 300.506 321.796 300.534 321.709C300.561 321.622 300.571 321.532 300.563 321.442C304.283 316.142 318.223 288.542 321.603 274.702C323.963 264.902 321.623 257.602 312.343 253.942ZM318.623 279.342C309.211 278.136 300.111 275.164 291.803 270.582C296.483 261.722 302.263 251.622 311.803 255.422C322.423 259.642 322.203 268.382 318.623 279.282V279.342ZM285.343 331.342C284.728 330.827 284.057 330.384 283.343 330.022C280.639 328.649 277.517 328.347 274.603 329.182C274.403 326.802 273.263 311.322 273.263 311.182C288.243 316.662 283.622 314.282 298.463 321.662C296.902 323.142 291.043 327.242 285.343 331.302V331.342ZM295.663 273.462C297.612 274.527 299.616 275.496 301.663 276.362C297.077 283.562 293.028 291.09 289.543 298.882C286.183 305.902 286.303 305.862 282.883 313.522C280.883 312.882 278.883 312.282 276.883 311.682C279.043 307.382 294.403 275.942 295.663 273.422V273.462ZM283.663 313.722C290.163 302.062 296.783 287.562 302.463 276.622C304.463 277.462 306.463 278.142 308.463 278.742C307.402 280.742 304.303 286.062 303.483 287.602C302.663 289.142 294.443 305.342 293.863 306.582C292.943 308.582 290.423 314.162 289.643 315.942C287.603 315.042 285.643 314.362 283.583 313.682L283.663 313.722ZM290.363 316.202C291.583 313.982 296.603 304.662 297.223 303.462C298.163 301.602 308.643 280.182 309.223 278.942C311.062 279.462 313.003 279.902 314.243 280.142C310.583 290.142 300.043 309.402 296.243 318.902C292.783 317.282 292.003 316.882 290.283 316.162L290.363 316.202ZM291.583 271.162L295.163 273.162C287.948 285.449 281.664 298.257 276.363 311.482L273.363 310.562C284.983 285.802 285.523 282.562 291.503 271.122L291.583 271.162ZM299.823 320.642L296.803 319.202C300.063 312.802 310.263 296.382 314.923 280.282C316.043 280.482 317.143 280.662 318.203 280.802C313.063 294.516 306.892 307.821 299.743 320.602L299.823 320.642ZM237.163 333.622C237.959 332.962 238.529 332.069 238.791 331.067C239.052 330.065 238.994 329.007 238.623 328.042C238.452 326.649 237.814 325.354 236.811 324.372C235.808 323.39 234.499 322.779 233.102 322.641C231.706 322.501 230.303 322.84 229.126 323.604C227.948 324.367 227.064 325.51 226.623 326.842C224.062 325.182 221.283 323.422 218.623 321.742C220.623 319.082 226.503 320.262 227.103 322.442C227.116 322.527 227.162 322.604 227.231 322.654C227.301 322.704 227.388 322.725 227.472 322.712C227.557 322.699 227.632 322.652 227.684 322.584C227.734 322.514 227.756 322.427 227.743 322.342C227.443 318.862 220.203 316.822 217.283 320.922C214.703 319.342 211.503 317.422 208.823 315.962C211.122 313.962 216.263 315.082 216.823 317.162C216.849 317.234 216.899 317.292 216.966 317.33C217.031 317.367 217.109 317.38 217.183 317.365C217.257 317.35 217.324 317.31 217.372 317.25C217.419 317.192 217.444 317.117 217.443 317.042C217.183 313.802 210.482 311.622 207.443 315.182C206.169 314.469 204.829 313.879 203.443 313.422C203.189 313.317 202.911 313.287 202.641 313.337C202.371 313.387 202.121 313.514 201.923 313.702C196.863 320.002 179.803 336.362 171.923 338.262C171.724 338.292 171.537 338.374 171.381 338.499C171.224 338.624 171.104 338.787 171.031 338.974C170.957 339.161 170.934 339.364 170.964 339.561C170.996 339.759 171.077 339.945 171.202 340.102C172.932 341.859 174.914 343.349 177.083 344.522C175.083 346.522 173.523 348.322 172.363 349.622C171.762 350.262 171.443 362.502 171.962 365.204C172.039 365.466 172.211 365.695 172.443 365.844C174.962 367.564 207.423 381.604 210.743 379.724C212.963 378.462 239.463 350.882 239.883 350.042C240.523 348.722 240.303 339.922 240.263 336.402C240.103 335.342 238.122 334.202 237.163 333.622ZM173.163 360.044V355.582C181.463 359.582 200.463 367.742 207.663 370.022C209.503 370.622 209.663 370.542 210.622 370.022C216.122 366.502 235.543 344.622 239.103 341.282V345.502C228.303 356.324 209.963 375.284 209.623 374.204C207.643 374.084 174.883 360.844 173.163 360.044ZM236.663 326.882C237.381 328.094 237.768 329.474 237.783 330.882C237.776 331.33 237.666 331.77 237.461 332.17C237.256 332.569 236.963 332.915 236.603 333.182C234.923 332.062 231.743 329.982 227.983 327.542C230.043 323.482 234.622 323.422 236.583 326.882H236.663ZM172.663 339.682C181.183 337.162 197.363 321.562 202.803 314.802C204.111 315.167 205.374 315.684 206.563 316.342C204.563 320.062 206.702 324.142 207.463 323.562C207.883 323.242 207.123 323.122 207.003 321.162C206.951 319.73 207.276 318.31 207.943 317.042C210.702 318.482 213.943 320.362 216.683 321.942C215.003 325.682 217.022 329.382 217.723 328.842C218.423 328.302 217.403 328.422 217.283 326.462C217.234 325.177 217.479 323.897 218.003 322.722C220.823 324.382 223.702 326.102 226.342 327.722C225.936 328.719 225.774 329.799 225.871 330.87C225.969 331.942 226.323 332.976 226.903 333.882C226.929 333.916 226.961 333.945 226.999 333.967C227.036 333.987 227.077 334.002 227.119 334.007C227.162 334.012 227.206 334.01 227.248 333.999C227.289 333.987 227.328 333.969 227.363 333.942C227.396 333.915 227.426 333.884 227.446 333.845C227.468 333.809 227.483 333.767 227.488 333.724C227.492 333.682 227.491 333.639 227.479 333.597C227.468 333.556 227.449 333.516 227.423 333.482C227.063 332.687 226.886 331.822 226.903 330.95C226.919 330.079 227.131 329.222 227.522 328.442C232.182 331.282 235.943 333.662 237.103 334.442C236.883 334.642 216.023 353.202 208.923 358.724C204.263 357.502 179.803 345.362 172.663 339.682ZM173.423 350.822C182.482 354.822 203.063 364.102 207.803 365.004C208.623 365.164 208.943 365.222 210.503 363.982C217.163 358.644 238.823 335.982 239.023 336.222C239.032 336.282 239.032 336.342 239.023 336.402V340.402C234.563 343.982 209.763 370.022 209.363 368.782C207.363 368.782 174.863 355.524 173.203 354.782C173.163 353.942 173.342 351.702 173.423 350.822ZM209.843 378.382C207.843 379.524 177.383 367.142 173.303 364.622C173.149 363.346 173.076 362.066 173.083 360.782C181.843 365.102 207.322 375.862 209.663 375.764C213.083 375.582 237.263 348.362 238.983 346.462C239.003 347.484 238.901 348.504 238.683 349.502C238.343 350.162 211.163 377.644 209.843 378.382ZM44.1418 265.642C44.2818 267.782 44.3818 269.642 44.3818 271.382C44.3818 271.647 44.4872 271.902 44.6745 272.089C44.8621 272.277 45.1163 272.382 45.3818 272.382C45.6469 272.382 45.9014 272.277 46.0887 272.089C46.2763 271.902 46.3818 271.647 46.3818 271.382C46.3818 269.522 46.2818 267.682 46.1418 265.502C46.1232 265.237 46 264.99 45.7992 264.816C45.5985 264.64 45.337 264.554 45.0716 264.572C44.8065 264.59 44.5596 264.714 44.3851 264.914C44.2105 265.116 44.1232 265.377 44.1418 265.642ZM348.883 225.542C348.752 225.55 348.624 225.584 348.504 225.641C348.388 225.699 348.283 225.779 348.199 225.879C348.112 225.977 348.046 226.092 348.006 226.216C347.966 226.341 347.952 226.472 347.963 226.602C348.083 228.442 348.203 230.422 348.203 232.342C348.203 232.607 348.308 232.862 348.497 233.049C348.683 233.237 348.937 233.342 349.203 233.342C349.468 233.342 349.723 233.237 349.908 233.049C350.097 232.862 350.203 232.607 350.203 232.342C350.203 230.342 350.083 228.342 349.941 226.462C349.933 226.332 349.901 226.204 349.843 226.087C349.784 225.969 349.704 225.864 349.606 225.779C349.508 225.692 349.392 225.627 349.268 225.587C349.144 225.547 349.013 225.53 348.883 225.542ZM38.9618 260.662C39.2269 260.662 39.4814 260.557 39.6687 260.369C39.8563 260.182 39.9618 259.927 39.9618 259.662C39.9618 259.397 39.8563 259.142 39.6687 258.956C39.4814 258.767 39.2269 258.662 38.9618 258.662C36.5418 258.662 34.5218 258.842 32.5218 258.802C32.2545 258.802 31.9981 258.907 31.8076 259.094C31.6167 259.281 31.5069 259.536 31.5018 259.802C31.5018 260.067 31.6072 260.322 31.7945 260.509C31.9821 260.697 32.2363 260.802 32.5018 260.802C34.5618 260.842 36.8218 260.762 38.9618 260.662ZM342.683 219.622C340.283 219.622 338.263 219.762 336.243 219.782C335.977 219.782 335.723 219.887 335.536 220.076C335.348 220.262 335.243 220.517 335.243 220.782C335.243 221.047 335.348 221.302 335.536 221.489C335.723 221.677 335.977 221.782 336.243 221.782C338.403 221.782 340.643 221.782 342.803 221.622C343.068 221.605 343.316 221.485 343.492 221.287C343.668 221.089 343.757 220.827 343.743 220.562C343.726 220.297 343.606 220.049 343.408 219.872C343.208 219.696 342.948 219.605 342.683 219.622ZM43.6018 248.302C43.7218 250.142 43.8418 252.122 43.8418 254.042C43.8469 254.305 43.9538 254.557 44.1403 254.744C44.3265 254.93 44.5781 255.037 44.8418 255.042C45.1069 255.042 45.3614 254.937 45.5487 254.749C45.7363 254.562 45.8418 254.307 45.8418 254.042C45.8418 252.042 45.7218 250.042 45.6018 248.162C45.5832 247.897 45.46 247.65 45.2592 247.476C45.0585 247.301 44.797 247.214 44.5316 247.232C44.2665 247.25 44.0196 247.374 43.8451 247.574C43.6705 247.776 43.5832 248.037 43.6018 248.302ZM349.661 215.002C349.661 213.002 349.541 211.002 349.403 209.122C349.384 208.857 349.261 208.61 349.061 208.436C348.861 208.261 348.599 208.174 348.333 208.192C348.068 208.21 347.821 208.334 347.646 208.534C347.472 208.736 347.384 208.997 347.403 209.262C347.523 211.102 347.643 213.082 347.643 215.002C347.643 215.267 347.748 215.522 347.937 215.709C348.123 215.897 348.377 216.002 348.643 216.002C348.908 216.002 349.166 215.897 349.355 215.71C349.548 215.524 349.657 215.269 349.661 215.002ZM58.3618 260.402C58.493 260.397 58.6221 260.365 58.7414 260.31C58.8607 260.256 58.9683 260.177 59.0574 260.081C59.1465 259.984 59.216 259.872 59.261 259.747C59.3065 259.624 59.3272 259.494 59.3218 259.362C59.3014 259.101 59.1832 258.856 58.9901 258.677C58.7974 258.501 58.5443 258.402 58.2818 258.402C55.8618 258.502 53.8418 258.582 51.8218 258.542C51.5563 258.542 51.3021 258.647 51.1145 258.836C50.9272 259.022 50.8218 259.277 50.8218 259.542C50.8218 259.807 50.9272 260.062 51.1145 260.249C51.3021 260.437 51.5563 260.542 51.8218 260.542C53.9618 260.582 56.2018 260.502 58.3618 260.402ZM362.083 219.362C360.083 219.462 357.861 219.522 355.643 219.522C355.512 219.517 355.381 219.539 355.253 219.585C355.13 219.632 355.021 219.704 354.923 219.794C354.828 219.885 354.752 219.996 354.701 220.117C354.65 220.239 354.621 220.37 354.621 220.502C354.621 220.769 354.726 221.025 354.915 221.217C355.101 221.407 355.355 221.517 355.621 221.522C357.901 221.522 359.741 221.522 362.163 221.362C362.293 221.357 362.421 221.325 362.541 221.27C362.661 221.216 362.77 221.137 362.857 221.041C362.948 220.944 363.017 220.832 363.061 220.707C363.108 220.584 363.126 220.454 363.123 220.322C363.097 220.062 362.977 219.821 362.784 219.644C362.595 219.465 362.344 219.365 362.083 219.362ZM12.4016 201.142C12.6616 201.342 69.0618 192.982 71.4818 191.502C71.616 191.404 71.7229 191.274 71.7927 191.124C71.8625 190.974 71.8934 190.807 71.8818 190.642C71.8818 188.062 68.5018 163.842 66.8818 157.802C66.6818 157.062 66.4818 156.322 66.0218 156.062C62.9618 154.222 9.04167 164.382 5.82167 166.462C5.73447 166.514 5.65898 166.584 5.60047 166.665C5.54181 166.749 5.50149 166.842 5.48163 166.942C4.80163 169.362 10.6616 199.942 12.4016 201.142ZM6.70167 167.422C10.5417 165.682 59.4818 156.722 65.0818 157.422C66.4418 160.922 70.0818 186.562 70.3218 190.322C67.5418 191.142 13.1617 200.482 12.9617 200.522C12.7617 200.562 12.7417 200.802 12.3217 199.542C10.5617 194.262 6.60167 171.942 6.70167 167.422Z" fill="black"/>
<path d="M75.8818 193.282C75.9905 193.08 76.0393 192.85 76.0218 192.622C76.0218 189.442 71.4618 154.142 69.8418 151.322C69.7149 151.114 69.5353 150.943 69.3207 150.827C69.1065 150.711 68.8654 150.654 68.6218 150.662C61.9218 149.842 5.4018 160.882 1.6818 163.462C1.1618 163.822 1.2418 164.722 1.3018 165.682C1.6218 170.942 7.3018 205.542 9.3018 205.342C9.5218 205.342 9.4418 205.182 8.9218 206.242C5.8018 212.662 -0.118203 233.222 0.00179684 237.362C0.00179684 239.102 0.401798 241.362 2.1218 241.242C14.4618 239.722 74.9618 230.122 92.3618 226.542C93.0418 226.402 93.4818 225.782 93.4618 224.762C93.2563 223.062 92.7414 221.415 91.9418 219.902C89.5018 215.322 79.3818 197.182 75.8818 193.282ZM9.4218 204.722C7.8618 202.722 2.1218 168.262 2.5618 164.442C6.9618 162.162 62.7218 151.382 68.5618 152.262C70.1618 156.662 74.3018 188.442 74.5618 192.262C67.4818 194.702 18.4618 202.622 9.4218 204.722ZM10.3018 205.322C11.9818 204.902 69.2018 195.322 74.4418 193.942C77.3018 196.602 90.2218 219.582 91.0618 221.542C79.5818 223.542 11.4818 234.922 1.4618 236.442C1.6018 230.382 7.8218 209.202 10.3018 205.322Z" fill="black"/>
<path d="M17.8228 226.062C19.5628 225.802 56.4828 221.362 69.8228 217.742C69.905 217.721 69.9755 217.667 70.0188 217.595C70.0617 217.522 70.0741 217.434 70.053 217.352C70.0315 217.27 69.9788 217.199 69.9053 217.157C69.8323 217.114 69.745 217.101 69.6628 217.122C67.0428 217.662 35.0828 221.922 17.7828 225.442C17.735 225.434 17.6858 225.435 17.6392 225.449C17.5925 225.462 17.5493 225.485 17.5132 225.519C17.4768 225.55 17.4485 225.59 17.43 225.635C17.4116 225.681 17.4036 225.729 17.4068 225.777C17.41 225.825 17.424 225.874 17.4481 225.915C17.4721 225.957 17.5055 225.994 17.5455 226.02C17.5856 226.049 17.6315 226.067 17.6795 226.074C17.7275 226.081 17.7765 226.077 17.8228 226.062ZM44.8028 86.902C44.0555 88.5893 43.4275 90.3271 42.9228 92.102C42.893 92.3867 42.9715 92.6725 43.1428 92.902C45.1628 95.942 65.8628 119.282 71.2628 122.562C72.0028 123.022 72.8828 123.342 73.4228 122.682C77.3453 117.801 82.465 114.018 88.2828 111.702C93.0181 110.027 97.9828 109.089 103.003 108.922C107.003 108.562 107.703 108.162 109.243 105.542C111.06 102.094 113.47 98.9933 116.363 96.382C120.052 93.1565 124.146 90.4267 128.543 88.262C128.741 88.15 128.896 87.9747 128.982 87.7645C129.069 87.5544 129.084 87.3213 129.023 87.102C128.347 85.3816 127.453 83.7551 126.363 82.262C127.083 82.022 127.883 81.802 127.883 81.082C127.883 79.082 110.443 53.842 105.603 49.082C105.103 48.582 104.383 47.922 103.723 47.962C93.7228 48.522 83.9828 57.962 78.3428 66.202C71.8828 65.962 67.7028 65.382 60.3428 68.482C55.1468 70.6875 50.4624 73.9424 46.5828 78.042C45.9828 78.662 41.9028 82.982 41.8428 83.322C41.7828 83.662 41.9028 83.662 44.8028 86.902ZM124.803 86.342C116.463 87.762 111.143 94.702 107.223 102.242C105.483 105.602 105.643 105.762 103.803 105.722C100.585 105.54 97.3577 105.661 94.1628 106.082C91.8192 106.432 89.5152 107.009 87.2828 107.802C82.2028 109.602 76.3828 115.362 73.2828 119.642C73.217 119.73 73.133 119.803 73.037 119.857C72.941 119.91 72.8348 119.942 72.725 119.952C72.6155 119.961 72.5053 119.947 72.4014 119.911C72.2977 119.875 72.2028 119.818 72.1228 119.742C65.6228 113.042 54.1228 101.282 48.3428 94.522C48.0628 94.222 48.5428 93.782 48.8228 94.102C52.5628 98.102 62.2228 107.682 72.5828 118.102C76.0828 113.642 81.4828 108.242 86.8228 106.362C89.7348 105.323 92.765 104.651 95.8428 104.362C98.7253 104.143 101.62 104.143 104.503 104.362C105.683 103.002 111.523 87.562 124.763 85.842C124.801 85.8704 124.833 85.9071 124.856 85.9496C124.879 85.9922 124.891 86.0391 124.893 86.0871C124.895 86.1351 124.886 86.1831 124.867 86.2271C124.848 86.2715 124.819 86.3104 124.783 86.342H124.803ZM103.703 49.582C107.703 52.382 123.983 76.482 126.103 80.702C122.424 81.8675 118.873 83.402 115.503 85.282C112.312 86.882 109.517 89.1733 107.324 91.9896C105.13 94.806 103.593 98.0762 102.823 101.562C95.6428 89.882 85.6228 77.022 78.9628 67.562C79.3628 67.302 90.6028 50.362 103.703 49.582ZM60.7828 69.582C68.0828 66.642 72.1228 67.322 78.1628 67.582C84.1628 77.822 94.9428 92.262 102.043 101.722C95.4897 100.171 88.5941 101.12 82.7028 104.382C79.1628 106.382 74.8428 111.182 72.1828 114.162C68.3428 111.082 46.1828 87.482 42.6228 83.482C48.1028 77.282 53.1628 72.622 60.7828 69.502V69.582ZM24.1828 120.442C23.6886 120.095 23.1043 119.899 22.5006 119.878C21.897 119.857 21.3003 120.011 20.7828 120.322C20.4061 120.49 20.0657 120.731 19.7821 121.03C19.498 121.33 19.276 121.682 19.1283 122.068C18.9807 122.453 18.9103 122.864 18.9215 123.276C18.9325 123.689 19.0247 124.095 19.1928 124.472C19.3608 124.849 19.6017 125.189 19.901 125.473C20.2006 125.757 20.553 125.979 20.9384 126.126C21.3239 126.274 21.7344 126.345 22.1472 126.333C22.5595 126.322 22.9661 126.23 23.3428 126.062C23.945 125.93 24.493 125.619 24.9137 125.169C25.3348 124.718 25.609 124.151 25.6999 123.542C25.7912 122.932 25.6948 122.309 25.4239 121.756C25.153 121.202 24.7203 120.744 24.1828 120.442ZM22.8628 124.442C21.4628 124.882 20.6228 124.442 20.2828 123.762C19.6428 122.342 20.4428 120.162 22.5228 120.802C23.9828 121.342 25.1628 123.802 22.8628 124.542V124.442ZM125.883 28.922C126.463 30.102 129.163 29.662 130.343 29.282C130.963 29.082 131.363 28.862 131.423 28.262C131.603 26.762 131.803 13.762 131.123 12.502C131.053 12.3699 130.945 12.2615 130.813 12.1904C130.681 12.1192 130.532 12.0884 130.383 12.102C128.249 12.096 126.126 12.4062 124.083 13.022C123.263 13.522 125.163 27.602 125.883 28.922ZM124.503 13.502C126.35 13.2377 128.219 13.1507 130.083 13.242C130.203 14.722 129.883 27.542 129.863 27.742C129.018 28.0449 128.116 28.1544 127.223 28.062C127.083 27.602 126.843 26.362 126.543 24.802C125.661 21.0746 124.981 17.3024 124.503 13.502ZM22.2428 103.562C22.4348 103.661 22.6472 103.711 22.8628 103.711C23.0784 103.711 23.2908 103.661 23.4828 103.562C24.2555 103.085 24.8683 102.389 25.2428 101.562C25.2937 101.43 25.3093 101.286 25.2883 101.146C25.2672 101.006 25.2104 100.874 25.1228 100.762C24.1628 99.622 13.6828 87.482 12.4028 88.242C10.8312 89.2595 9.34014 90.3962 7.9428 91.642C7.88647 91.6926 7.84131 91.754 7.81033 91.8227C7.77931 91.8918 7.76316 91.9664 7.7628 92.042C7.7228 93.082 19.3628 102.402 22.2428 103.562ZM12.6428 88.762C14.1028 89.822 19.0228 95.902 23.5828 101.282C23.3868 101.591 23.1439 101.867 22.8628 102.102C18.0685 99.0336 13.491 95.6387 9.1628 91.942C10.2478 90.8027 11.4107 89.7402 12.6428 88.762ZM44.0628 44.642C44.5028 36.882 49.0228 33.282 53.7428 32.362C52.4028 37.282 52.6228 43.682 57.4828 44.502C59.8028 44.882 60.9428 43.682 62.6228 42.282C69.8028 36.282 64.0028 30.282 55.9028 30.702C58.9228 22.422 65.9028 15.682 75.1628 15.462C75.2475 15.462 75.329 15.4284 75.389 15.3684C75.449 15.3082 75.4828 15.2269 75.4828 15.142C75.4828 15.0572 75.449 14.9757 75.389 14.9157C75.329 14.8557 75.2475 14.822 75.1628 14.822C65.1628 14.622 57.3028 21.822 54.2028 30.822C48.8628 31.742 43.5628 35.742 43.4228 44.522C43.4148 44.5642 43.4152 44.6071 43.4243 44.6489C43.433 44.6907 43.4501 44.7304 43.4741 44.766C43.4984 44.8013 43.529 44.8315 43.565 44.8547C43.6006 44.878 43.641 44.8944 43.6828 44.902C43.725 44.91 43.7679 44.9093 43.8097 44.9006C43.8515 44.8918 43.8912 44.8747 43.9268 44.8507C43.9621 44.8264 43.9923 44.7958 44.0155 44.7598C44.0388 44.7242 44.0548 44.6842 44.0628 44.642ZM55.4428 32.122C58.4228 31.922 62.8628 32.842 64.0828 35.542C64.7828 37.082 64.0828 38.982 61.6028 41.062C60.9293 41.7365 60.1613 42.3093 59.3228 42.762C56.3228 44.042 53.0028 40.342 55.4428 32.122ZM61.1628 314.982C59.2304 314.464 57.2144 314.339 55.2326 314.612C53.2508 314.885 51.3439 315.552 49.6239 316.574C47.9039 317.594 46.4053 318.949 45.217 320.559C44.0283 322.167 43.1733 323.997 42.7028 325.942C41.8144 329.982 42.5668 334.209 44.7948 337.692C47.0228 341.177 50.5435 343.634 54.5828 344.522C58.6221 345.41 62.849 344.659 66.333 342.43C69.8177 340.202 72.2744 336.682 73.1628 332.642C73.5424 330.694 73.5326 328.69 73.1337 326.745C72.7352 324.801 71.9555 322.955 70.8403 321.314C69.7246 319.672 68.2952 318.267 66.6344 317.181C64.9733 316.094 63.1137 315.347 61.1628 314.982ZM67.3428 331.282C66.5402 334.482 64.6192 337.29 61.9268 339.197C59.2344 341.105 55.9483 341.987 52.6628 341.682C49.6468 340.504 47.1428 338.299 45.5919 335.457C44.041 332.614 43.5417 329.315 44.1828 326.142C44.9312 322.864 46.8344 319.964 49.5446 317.974C52.2548 315.984 55.5908 315.035 58.9428 315.302C61.9886 316.561 64.493 318.852 66.0148 321.775C67.5366 324.699 67.9788 328.065 67.2628 331.282H67.3428Z" fill="black"/>
<path d="M87.8026 320.682C86.0615 320.082 84.1954 319.937 82.3826 320.262C81.631 318.539 80.7066 316.897 79.6226 315.362C80.9226 314.182 84.4826 310.902 83.6226 309.362C80.5619 305.7 76.9281 302.561 72.8623 300.062C71.1648 299.11 69.2957 298.505 67.3626 298.282C66.0826 298.462 63.0423 303.442 62.3623 304.562C61.9223 304.562 60.3626 304.062 60.2426 304.002C60.2426 302.562 59.8226 297.362 58.5226 296.762C57.0688 296.227 55.5594 295.857 54.0226 295.662C52.6026 295.442 39.8226 297.782 38.8826 299.502C38.2626 300.662 39.7026 305.042 40.1226 306.262C39.0441 306.856 38.0081 307.524 37.0226 308.262C35.0226 309.682 35.5626 309.622 35.2026 309.462C34.7674 309.254 34.3012 309.119 33.8226 309.062C32.2248 308.125 30.3517 307.772 28.5226 308.062C26.6826 308.662 22.3426 318.542 21.6426 321.082C21.4135 321.722 21.3517 322.41 21.4626 323.082C21.9426 324.402 25.1426 325.462 26.4826 325.882C26.1125 328.456 26.1125 331.069 26.4826 333.642C24.7226 334.122 21.0623 335.202 21.2623 337.002C21.4623 338.802 26.1423 350.682 28.0823 351.622C29.1452 352.217 30.3205 352.582 31.5328 352.696C32.7452 352.809 33.9677 352.669 35.1226 352.282C35.7728 351.957 36.4012 351.59 37.0026 351.182C37.8026 351.782 38.6426 352.322 39.5026 352.842C38.8826 354.382 37.5026 357.822 37.9426 359.382C38.1626 360.204 38.8226 360.462 39.7426 360.804C42.2826 361.724 55.9626 365.004 58.0426 364.644C58.8226 364.524 59.2426 363.702 59.4826 362.924C59.927 361.146 60.1885 359.331 60.2623 357.502C61.2895 357.4 62.311 357.248 63.3226 357.044C63.9405 358.128 64.7306 359.109 65.6626 359.942C66.6826 360.662 67.5426 360.302 68.7026 359.564C69.2626 360.284 70.1026 361.284 71.0026 361.382C73.2626 361.644 82.6026 352.842 83.5626 351.042C84.3626 349.542 81.4426 346.862 80.1426 345.682C81.5488 343.565 82.6528 341.264 83.4226 338.842C84.8652 339.059 86.3252 339.141 87.7826 339.082C88.4426 339.082 89.2026 338.842 89.4826 338.222C90.7026 335.442 90.3426 324.902 89.4826 322.222C89.3626 321.442 88.4626 320.922 87.8026 320.682ZM88.2826 322.522C88.9626 325.122 89.1823 334.942 88.1823 337.482C86.4532 337.652 84.7084 337.572 83.0023 337.242C82.8204 337.21 82.6332 337.249 82.4779 337.349C82.3223 337.449 82.2099 337.604 82.1626 337.782C81.3663 340.485 80.1295 343.04 78.5023 345.342C78.3866 345.496 78.3343 345.685 78.3568 345.877C78.379 346.067 78.4746 346.241 78.6226 346.362C80.0259 347.474 81.2179 348.829 82.1426 350.362C81.1426 352.002 73.3226 359.164 71.1626 359.764C70.8426 359.764 69.9626 358.564 69.7426 358.244C69.0037 357.131 68.3361 355.978 67.7426 354.782C67.6561 354.608 67.5074 354.473 67.3263 354.404C67.1448 354.331 66.9437 354.331 66.7623 354.404C60.9623 356.582 58.7626 355.302 58.7626 356.742C58.7652 358.898 58.4139 361.04 57.7223 363.084C53.0223 362.571 48.3943 361.538 43.9226 360.004C44.1386 357.866 44.7343 355.786 45.6826 353.862C46.2826 352.522 43.8826 352.902 39.4026 348.342C39.2583 348.209 39.0692 348.134 38.8728 348.134C38.6761 348.134 38.487 348.209 38.3426 348.342C36.3426 349.982 33.7426 351.582 33.2226 351.322C32.2026 350.822 27.5026 340.162 27.2226 338.002C28.6452 337.01 30.2601 336.329 31.9626 336.002C32.1441 335.95 32.3008 335.836 32.4041 335.677C32.5066 335.519 32.5492 335.329 32.5226 335.142C32.0325 332.31 32.0325 329.414 32.5226 326.582C32.5532 326.407 32.5165 326.229 32.4201 326.081C32.3234 325.932 32.1743 325.825 32.0026 325.782C30.4946 325.387 29.0434 324.802 27.6826 324.042C27.2426 323.722 27.2826 323.742 27.3226 323.402C28.6172 318.734 30.6932 314.317 33.4626 310.342C34.5426 310.042 37.4626 312.182 38.4626 312.942C38.567 313.044 38.707 313.1 38.8525 313.1C38.9983 313.1 39.1383 313.044 39.2426 312.942C40.1615 311.989 41.151 311.107 42.2026 310.302C45.2426 308.002 46.0626 308.302 45.8026 307.502C44.883 305.496 44.3666 303.327 44.2826 301.122C44.5925 300.864 44.9445 300.662 45.3226 300.522C47.1899 299.784 49.1081 299.182 51.0626 298.722C53.4317 298.062 55.8666 297.665 58.3226 297.542C58.7426 297.722 59.1226 299.542 59.2226 300.102C59.9626 304.102 59.4626 304.922 60.0426 304.982C65.7426 305.542 66.9026 307.122 67.3026 306.422C68.4117 304.482 69.7045 302.654 71.1626 300.962C71.5826 300.542 71.5626 300.342 72.8226 301.062C76.587 303.522 79.9583 306.536 82.8226 310.002C83.1226 310.522 80.5226 313.282 78.6226 314.902C77.9626 315.482 78.9026 315.742 80.6226 319.022C82.3426 322.302 81.9423 323.222 82.8623 323.022C84.6361 322.597 86.4612 322.429 88.2826 322.522ZM365.861 155.402C361.668 153.69 357.275 152.526 352.784 151.942C349.504 151.422 345.643 150.902 342.383 150.482C345.523 146.042 354.821 134.802 356.381 132.062C356.821 131.322 355.984 130.282 355.363 129.662C351.883 125.942 345.163 124.542 340.003 123.742C337.043 123.262 324.683 121.742 322.583 122.742C320.063 123.942 301.423 151.942 300.863 156.202C300.863 156.922 301.103 157.202 301.803 157.462C304.743 158.542 318.003 160.222 320.963 160.922C316.963 167.922 299.183 191.582 297.443 194.922C297.023 195.762 297.283 196.262 297.783 196.422C299.583 197.137 301.434 197.712 303.323 198.142C304.043 198.362 305.623 197.382 307.923 195.982C318.243 189.782 362.523 160.542 365.923 156.762C366.017 156.674 366.09 156.566 366.141 156.446C366.188 156.326 366.21 156.197 366.203 156.068C366.199 155.94 366.163 155.813 366.104 155.698C366.046 155.583 365.963 155.482 365.861 155.402ZM322.883 179.402C305.883 190.622 300.143 193.902 299.943 194.042C302.683 189.862 319.703 166.542 322.623 160.962C322.672 160.854 322.699 160.737 322.699 160.617C322.699 160.499 322.671 160.381 322.619 160.274C322.568 160.165 322.493 160.072 322.399 159.997C322.308 159.922 322.199 159.869 322.083 159.842C320.083 159.122 305.523 157.562 302.083 156.342C302.523 152.622 320.683 124.502 322.883 123.382C325.083 122.262 346.423 124.802 350.424 127.662C348.323 131.762 336.723 146.122 334.843 149.462C334.463 150.142 334.343 150.802 335.083 150.982C335.823 151.162 354.621 153.362 358.723 154.702C353.723 158.882 328.483 175.642 322.883 179.322V179.402ZM194.583 57.1221C194.583 57.3021 194.703 57.5221 195.003 58.6821C195.081 58.9337 195.254 59.145 195.486 59.2719C195.716 59.3985 195.988 59.4308 196.243 59.3621C196.498 59.2879 196.712 59.1156 196.839 58.8828C196.968 58.6505 196.998 58.3767 196.923 58.1221C196.723 57.3421 196.543 56.6821 196.423 56.3621C196.306 56.1425 196.112 55.9741 195.878 55.8901C195.644 55.8058 195.388 55.8116 195.158 55.9065C194.928 56.0014 194.741 56.1785 194.636 56.4032C194.529 56.6279 194.509 56.8843 194.583 57.1221Z" fill="black"/>
</svg>
